<svg id="svg" xmlns="http://www.w3.org/2000/svg" xmlns:xlink="http://www.w3.org/1999/xlink" width="400" height="123.31777811229865" viewBox="0, 0, 400,123.31777811229865"><g id="svgg"><path id="path0" d="M76.231 7.798 C 76.230 7.833,75.976 7.862,75.613 7.869 C 74.752 7.885,74.161 7.991,73.957 8.169 L 73.792 8.311 73.929 8.348 C 74.048 8.380,74.062 8.414,74.037 8.620 C 74.021 8.759,74.032 8.840,74.066 8.819 C 74.097 8.800,74.123 8.811,74.123 8.844 C 74.123 8.905,73.945 8.979,73.732 9.006 C 73.666 9.014,73.448 9.048,73.249 9.081 C 73.040 9.116,72.772 9.120,72.617 9.092 C 72.469 9.065,72.327 9.056,72.302 9.071 C 72.277 9.087,72.257 9.077,72.257 9.051 C 72.257 9.024,72.196 9.000,72.121 8.997 C 71.946 8.992,71.366 8.921,71.173 8.881 C 70.336 8.712,69.485 8.763,69.186 9.001 C 68.985 9.160,67.239 9.661,66.722 9.707 C 66.616 9.716,66.452 9.876,66.390 10.030 C 66.344 10.143,66.342 10.143,66.293 10.026 C 66.264 9.955,66.242 9.941,66.239 9.991 C 66.237 10.038,66.191 10.125,66.137 10.184 C 66.045 10.287,66.051 10.292,66.264 10.275 C 66.387 10.265,66.519 10.288,66.557 10.325 C 66.595 10.362,66.718 10.384,66.829 10.374 C 67.004 10.360,67.022 10.370,66.958 10.447 C 66.916 10.497,66.847 10.537,66.803 10.537 C 66.760 10.537,66.705 10.567,66.683 10.604 C 66.655 10.649,66.683 10.657,66.770 10.630 C 66.961 10.570,66.928 10.709,66.732 10.789 C 66.641 10.827,66.532 10.852,66.491 10.845 C 66.450 10.839,66.416 10.859,66.416 10.890 C 66.416 10.953,65.874 11.057,65.272 11.109 C 65.056 11.128,64.664 11.169,64.399 11.199 C 64.134 11.229,63.727 11.270,63.495 11.289 C 61.391 11.465,55.026 12.705,52.327 13.464 C 48.390 14.572,43.348 16.839,40.223 18.907 C 38.848 19.816,37.181 21.097,37.243 21.196 C 37.258 21.221,36.846 21.644,36.327 22.136 C 34.920 23.473,33.940 24.453,33.204 25.260 C 32.842 25.657,32.531 25.996,32.514 26.012 C 32.497 26.029,32.348 26.205,32.184 26.404 C 32.019 26.602,31.767 26.899,31.623 27.063 C 30.790 28.012,28.210 31.651,27.455 32.942 C 26.537 34.512,24.755 38.098,24.451 38.988 C 24.292 39.452,24.025 40.234,23.856 40.726 C 23.551 41.619,23.456 41.943,23.014 43.595 C 22.788 44.444,22.785 44.469,22.901 44.514 C 23.019 44.561,23.278 44.373,23.202 44.297 C 23.183 44.278,23.234 44.246,23.315 44.226 C 23.396 44.206,23.501 44.134,23.548 44.066 C 23.713 43.829,24.128 43.414,24.200 43.414 C 24.240 43.414,24.257 43.387,24.236 43.354 C 24.216 43.321,24.228 43.294,24.263 43.294 C 24.349 43.294,24.566 43.072,24.522 43.028 C 24.503 43.008,24.537 42.993,24.597 42.993 C 24.658 42.993,24.691 42.975,24.670 42.955 C 24.649 42.934,24.698 42.864,24.780 42.800 C 24.862 42.735,24.928 42.658,24.928 42.627 C 24.928 42.578,25.186 41.975,25.532 41.216 C 25.592 41.084,25.777 40.677,25.943 40.313 C 26.109 39.949,26.331 39.488,26.437 39.289 C 26.543 39.091,26.708 38.779,26.804 38.597 C 26.900 38.415,27.071 38.103,27.184 37.905 C 27.297 37.706,27.459 37.408,27.544 37.242 C 27.629 37.077,27.848 36.711,28.031 36.429 C 28.214 36.148,28.569 35.599,28.820 35.210 C 29.071 34.821,29.295 34.502,29.319 34.502 C 29.343 34.502,29.408 34.414,29.465 34.307 C 29.521 34.199,29.629 34.030,29.703 33.930 C 29.778 33.831,29.960 33.586,30.109 33.386 C 30.258 33.186,30.413 32.983,30.454 32.935 C 30.495 32.886,30.858 32.440,31.260 31.943 C 31.663 31.447,32.049 30.983,32.119 30.914 C 32.188 30.845,32.448 30.564,32.696 30.290 C 33.280 29.645,34.202 28.721,34.680 28.300 C 34.887 28.118,35.093 27.935,35.137 27.894 C 35.189 27.845,35.231 27.839,35.255 27.879 C 35.276 27.913,35.251 27.956,35.199 27.976 C 35.147 27.996,35.105 28.035,35.105 28.063 C 35.105 28.090,34.942 28.279,34.743 28.482 C 34.407 28.824,33.720 29.697,33.720 29.782 C 33.720 29.802,33.643 29.917,33.549 30.038 C 33.221 30.461,31.272 33.331,31.069 33.690 C 30.995 33.822,30.784 34.215,30.602 34.563 C 30.420 34.910,30.250 35.222,30.224 35.255 C 30.199 35.288,30.079 35.559,29.958 35.857 C 29.837 36.155,29.681 36.521,29.613 36.670 C 29.544 36.819,29.359 37.280,29.201 37.694 C 29.043 38.108,28.856 38.581,28.785 38.745 C 28.410 39.610,28.383 40.146,28.749 39.468 C 28.981 39.039,29.257 38.536,29.444 38.206 C 29.519 38.073,29.786 37.653,30.039 37.272 C 30.291 36.891,30.530 36.505,30.570 36.414 C 30.610 36.323,30.671 36.249,30.706 36.249 C 30.741 36.249,30.769 36.212,30.769 36.166 C 30.769 36.121,30.925 35.877,31.115 35.625 C 31.306 35.373,31.665 34.893,31.913 34.559 C 32.162 34.224,32.419 33.891,32.485 33.817 C 32.552 33.743,32.766 33.481,32.962 33.235 C 33.159 32.988,33.362 32.743,33.414 32.690 C 33.466 32.637,33.644 32.434,33.810 32.239 C 34.160 31.826,36.422 29.549,36.917 29.111 C 37.673 28.442,38.436 27.821,39.380 27.107 C 40.207 26.482,40.210 26.479,40.421 26.307 C 40.527 26.221,40.680 26.116,40.761 26.073 C 40.842 26.031,40.936 25.972,40.972 25.942 C 41.096 25.838,42.003 25.252,42.300 25.084 C 42.573 24.930,42.800 24.787,43.490 24.336 C 43.615 24.255,43.705 24.176,43.690 24.161 C 43.651 24.121,44.137 23.708,44.754 23.256 C 45.044 23.044,45.281 22.839,45.281 22.800 C 45.281 22.762,45.414 22.640,45.577 22.529 C 45.740 22.418,45.923 22.281,45.984 22.225 C 46.402 21.840,47.879 21.022,48.683 20.730 C 49.443 20.455,51.167 19.557,51.030 19.508 C 50.965 19.484,50.890 19.476,50.866 19.490 C 50.841 19.505,50.820 19.489,50.820 19.456 C 50.820 19.423,51.058 19.325,51.347 19.239 C 52.226 18.977,53.492 18.541,53.818 18.389 C 54.057 18.278,54.039 18.283,54.963 18.095 C 55.370 18.013,55.898 17.892,56.137 17.826 C 56.376 17.760,56.815 17.652,57.113 17.586 C 57.411 17.520,57.848 17.398,58.084 17.315 C 58.506 17.168,59.571 17.040,60.385 17.040 C 60.817 17.040,60.745 17.117,60.103 17.342 C 59.533 17.541,59.139 17.764,59.174 17.866 C 59.190 17.914,59.234 17.921,59.300 17.888 C 59.641 17.713,61.327 17.479,62.562 17.435 C 63.009 17.419,63.687 17.389,64.067 17.368 C 64.671 17.336,65.001 17.357,65.904 17.485 C 66.003 17.500,66.423 17.529,66.837 17.550 C 67.251 17.572,67.698 17.600,67.831 17.612 C 67.963 17.625,68.925 17.653,69.968 17.675 C 71.012 17.697,71.946 17.725,72.046 17.736 C 72.334 17.769,73.378 17.832,74.033 17.856 C 74.364 17.868,74.716 17.891,74.816 17.907 C 74.915 17.922,75.186 17.965,75.418 18.001 C 77.123 18.268,79.461 18.907,82.058 19.815 C 82.811 20.078,83.480 20.320,83.547 20.352 C 83.664 20.408,84.172 20.599,84.841 20.838 C 85.023 20.903,85.258 20.997,85.362 21.046 C 85.466 21.095,85.569 21.135,85.589 21.135 C 85.641 21.135,86.683 21.539,86.979 21.673 C 87.383 21.857,88.383 22.219,88.485 22.219 C 88.538 22.219,88.567 22.243,88.548 22.273 C 88.530 22.302,88.589 22.344,88.680 22.366 C 88.852 22.407,90.569 23.229,90.622 23.295 C 90.652 23.333,90.952 23.504,91.208 23.628 C 91.283 23.664,91.344 23.714,91.344 23.739 C 91.344 23.764,91.377 23.784,91.416 23.784 C 91.496 23.784,91.965 24.089,91.997 24.161 C 92.008 24.186,92.041 24.206,92.071 24.206 C 92.120 24.206,92.261 24.307,92.450 24.479 C 92.520 24.543,93.070 24.904,93.737 25.324 C 93.944 25.454,94.113 25.581,94.114 25.606 C 94.114 25.631,94.149 25.651,94.191 25.651 C 94.233 25.651,94.362 25.728,94.477 25.823 C 95.061 26.301,96.583 27.265,96.583 27.156 C 96.583 27.123,96.538 27.096,96.483 27.096 C 96.427 27.096,96.400 27.078,96.422 27.057 C 96.444 27.035,96.430 26.979,96.391 26.932 C 96.335 26.865,96.339 26.834,96.406 26.791 C 96.480 26.745,96.480 26.737,96.407 26.736 C 96.360 26.735,96.339 26.718,96.360 26.697 C 96.381 26.676,96.325 26.602,96.235 26.532 C 95.801 26.195,94.716 25.131,94.716 25.043 C 94.716 25.015,94.798 25.008,94.897 25.028 C 95.012 25.051,95.078 25.039,95.078 24.996 C 95.078 24.959,95.049 24.928,95.015 24.928 C 94.938 24.928,94.632 24.631,94.670 24.593 C 94.697 24.567,95.201 24.807,95.258 24.873 C 95.275 24.893,95.440 25.005,95.626 25.123 C 95.812 25.241,96.044 25.415,96.142 25.510 C 96.240 25.604,96.409 25.748,96.518 25.830 C 96.626 25.912,96.803 26.061,96.910 26.161 C 97.017 26.262,97.191 26.409,97.296 26.488 C 97.401 26.568,97.475 26.645,97.461 26.660 C 97.446 26.674,97.586 26.826,97.772 26.997 C 97.958 27.167,98.234 27.424,98.385 27.567 C 99.715 28.824,100.075 29.176,100.075 29.221 C 100.075 29.249,100.109 29.307,100.151 29.350 C 100.192 29.392,100.555 29.776,100.957 30.203 C 101.360 30.630,101.785 31.082,101.902 31.206 C 102.019 31.330,102.143 31.432,102.179 31.432 C 102.214 31.432,102.243 31.458,102.243 31.491 C 102.243 31.585,102.440 31.790,102.496 31.755 C 102.524 31.738,102.540 31.760,102.530 31.803 C 102.521 31.847,102.550 31.876,102.594 31.867 C 102.638 31.858,102.659 31.874,102.641 31.903 C 102.596 31.976,102.872 32.227,102.934 32.170 C 102.962 32.145,102.969 32.152,102.949 32.187 C 102.888 32.294,103.716 33.065,103.847 33.022 C 103.926 32.996,103.936 33.002,103.881 33.042 C 103.818 33.087,103.819 33.112,103.890 33.171 C 103.938 33.210,103.989 33.222,104.004 33.195 C 104.018 33.169,104.021 33.181,104.011 33.223 C 103.983 33.340,104.242 33.557,104.301 33.464 C 104.331 33.417,104.349 33.456,104.350 33.569 C 104.352 33.708,104.366 33.729,104.411 33.659 C 104.460 33.583,104.469 33.587,104.470 33.681 C 104.471 33.755,104.501 33.781,104.561 33.758 C 104.622 33.735,104.652 33.761,104.652 33.840 C 104.652 33.923,104.680 33.946,104.749 33.919 C 104.826 33.890,104.838 33.909,104.805 34.011 C 104.773 34.113,104.784 34.133,104.858 34.104 C 104.919 34.081,104.953 34.102,104.953 34.163 C 104.953 34.226,104.986 34.245,105.050 34.221 C 105.129 34.190,105.139 34.211,105.106 34.328 C 105.081 34.415,105.086 34.443,105.117 34.398 C 105.171 34.321,105.374 34.498,105.374 34.624 C 105.374 34.656,105.396 34.676,105.422 34.668 C 105.449 34.660,105.741 34.924,106.073 35.255 C 106.774 35.956,107.058 36.197,107.130 36.152 C 107.159 36.134,107.162 36.088,107.137 36.049 C 107.112 36.010,107.089 35.964,107.086 35.948 C 107.068 35.861,106.973 35.673,106.932 35.645 C 106.907 35.628,106.910 35.574,106.939 35.527 C 106.981 35.460,107.143 35.589,107.661 36.100 C 108.448 36.878,108.568 36.942,108.350 36.466 C 108.266 36.282,108.181 36.030,108.161 35.905 C 108.127 35.695,108.044 35.510,107.836 35.176 C 107.670 34.911,107.854 34.985,108.263 35.348 C 108.771 35.800,108.735 35.743,109.613 37.495 C 110.202 38.670,110.432 39.076,110.432 38.942 C 110.432 38.883,110.135 38.055,110.071 37.935 C 109.997 37.796,110.061 37.697,110.226 37.695 C 110.322 37.693,110.866 39.010,110.991 39.546 C 111.069 39.878,110.781 40.552,110.642 40.363 C 110.406 40.039,109.998 43.238,110.229 43.607 C 110.256 43.650,110.287 43.753,110.296 43.836 C 110.306 43.918,110.340 44.040,110.371 44.107 C 110.402 44.173,110.458 44.390,110.496 44.588 C 110.533 44.787,110.588 45.058,110.618 45.190 C 110.647 45.323,110.687 45.540,110.706 45.672 C 110.725 45.805,110.765 45.994,110.794 46.094 C 110.822 46.193,110.861 46.396,110.880 46.545 C 110.899 46.694,110.928 46.884,110.946 46.967 C 110.964 47.050,110.990 47.199,111.004 47.298 C 111.018 47.397,111.046 47.587,111.066 47.719 C 111.087 47.852,111.114 48.028,111.127 48.111 C 111.139 48.194,111.163 48.343,111.179 48.442 C 111.196 48.541,111.223 48.704,111.240 48.803 C 111.311 49.234,111.332 49.373,111.398 49.857 C 111.436 50.138,111.478 50.491,111.491 50.640 C 111.503 50.789,111.527 50.973,111.542 51.049 C 111.558 51.125,111.588 51.396,111.610 51.651 C 111.631 51.906,111.658 52.130,111.670 52.149 C 111.681 52.168,111.708 52.479,111.730 52.841 C 111.752 53.204,111.779 53.515,111.789 53.533 C 111.800 53.551,111.826 53.944,111.847 54.406 C 111.868 54.868,111.897 55.409,111.912 55.607 C 111.997 56.730,111.927 60.122,111.788 61.719 C 111.777 61.835,111.766 61.964,111.763 62.005 C 111.745 62.225,111.636 62.037,111.636 61.786 C 111.636 61.591,111.608 61.480,111.553 61.459 C 111.447 61.418,111.409 61.506,111.065 62.594 C 110.594 64.084,110.434 64.263,110.339 63.405 C 110.334 63.355,110.307 63.247,110.279 63.164 C 110.189 62.895,110.182 62.842,110.129 62.080 C 110.100 61.666,110.091 61.217,110.109 61.082 C 110.127 60.947,110.100 60.662,110.050 60.450 C 109.849 59.601,109.752 58.572,109.768 57.457 L 109.779 56.657 109.628 56.684 C 109.482 56.711,109.478 56.703,109.501 56.431 C 109.519 56.220,109.488 56.073,109.379 55.848 C 109.219 55.517,109.047 54.983,109.047 54.815 C 109.047 54.584,108.895 54.072,108.827 54.072 C 108.716 54.072,108.658 54.319,108.755 54.380 C 108.823 54.423,108.823 54.432,108.755 54.432 C 108.709 54.433,108.687 54.471,108.705 54.518 C 108.723 54.564,108.721 54.619,108.700 54.640 C 108.661 54.679,108.637 54.785,108.613 55.020 C 108.606 55.095,108.579 55.156,108.555 55.156 C 108.531 55.156,108.521 55.237,108.534 55.336 C 108.546 55.436,108.533 55.517,108.504 55.517 C 108.475 55.517,108.461 55.598,108.474 55.698 C 108.486 55.797,108.478 55.878,108.456 55.878 C 108.433 55.878,108.415 56.495,108.415 57.248 C 108.415 58.446,108.358 60.170,108.294 60.906 C 108.252 61.391,108.135 62.566,108.052 63.345 C 107.973 64.078,107.653 66.042,107.507 66.687 C 107.499 66.720,107.478 66.815,107.460 66.897 C 106.930 69.293,106.824 69.710,106.453 70.842 C 106.322 71.240,106.204 71.619,106.189 71.685 C 106.147 71.869,105.841 72.747,105.526 73.581 C 105.370 73.995,105.184 74.489,105.113 74.679 C 104.837 75.418,104.828 74.887,105.100 73.914 C 105.218 73.491,105.412 72.622,105.524 72.016 C 105.577 71.734,105.739 70.921,105.884 70.209 C 106.157 68.879,106.187 68.679,106.251 67.801 C 106.290 67.251,106.542 65.212,106.637 64.673 C 106.682 64.422,106.675 64.284,106.609 64.090 C 106.551 63.919,106.537 63.751,106.567 63.576 C 106.614 63.303,106.517 62.119,106.442 62.044 C 106.400 62.003,106.298 62.363,106.325 62.457 C 106.332 62.482,106.310 62.502,106.277 62.502 C 106.244 62.502,106.222 62.522,106.229 62.547 C 106.240 62.587,106.216 62.761,106.128 63.290 C 106.115 63.370,106.090 63.530,106.073 63.646 C 106.037 63.882,105.802 65.296,105.767 65.482 C 105.692 65.888,105.407 67.183,105.304 67.590 C 105.237 67.855,105.173 68.112,105.163 68.162 C 105.083 68.550,104.936 69.117,104.805 69.547 C 104.719 69.828,104.618 70.167,104.580 70.300 C 104.476 70.659,104.171 71.607,104.115 71.745 C 104.087 71.811,103.881 72.366,103.656 72.979 C 103.431 73.592,103.197 74.187,103.136 74.303 C 103.075 74.418,103.026 74.537,103.026 74.566 C 103.026 74.640,102.227 76.431,102.122 76.592 C 102.090 76.642,101.945 76.926,101.800 77.224 C 101.655 77.522,101.407 77.996,101.249 78.278 C 101.091 78.559,100.898 78.912,100.821 79.061 C 100.744 79.210,100.559 79.521,100.409 79.753 C 100.259 79.985,100.089 80.269,100.031 80.385 C 99.973 80.501,99.837 80.725,99.729 80.882 C 99.622 81.038,99.533 81.185,99.533 81.208 C 99.533 81.230,99.492 81.291,99.441 81.344 C 99.391 81.396,99.149 81.751,98.904 82.132 C 98.659 82.512,98.420 82.865,98.372 82.914 C 98.325 82.964,98.216 83.115,98.132 83.251 C 98.047 83.386,97.942 83.536,97.898 83.583 C 97.854 83.630,97.724 83.804,97.609 83.969 C 97.494 84.134,97.379 84.278,97.353 84.289 C 97.326 84.300,97.320 84.334,97.339 84.365 C 97.357 84.395,97.344 84.420,97.309 84.420 C 97.274 84.420,97.245 84.457,97.245 84.504 C 97.245 84.550,97.205 84.603,97.156 84.622 C 97.105 84.641,97.082 84.696,97.102 84.749 C 97.122 84.800,97.108 84.841,97.071 84.841 C 97.034 84.841,97.004 84.868,97.004 84.901 C 97.004 85.035,96.293 85.973,95.910 86.344 C 95.684 86.563,95.499 86.785,95.499 86.837 C 95.499 86.943,94.782 87.790,94.469 88.055 C 94.335 88.168,94.292 88.237,94.343 88.256 C 94.702 88.389,92.571 90.218,91.275 90.890 C 90.957 91.055,90.682 91.312,90.682 91.445 C 90.682 91.557,90.366 91.899,90.098 92.077 C 90.025 92.125,89.731 92.380,89.446 92.643 C 89.160 92.906,88.607 93.337,88.217 93.602 C 86.763 94.590,86.106 95.128,86.106 95.331 C 86.106 95.420,86.134 95.438,86.226 95.409 C 86.452 95.337,86.344 95.469,85.969 95.722 C 85.763 95.862,85.485 96.052,85.353 96.146 C 85.221 96.239,84.990 96.388,84.841 96.475 C 84.553 96.645,83.881 97.245,83.979 97.245 C 84.221 97.245,86.041 96.516,86.678 96.164 C 88.685 95.055,89.261 94.719,89.568 94.480 C 90.039 94.114,91.310 93.271,91.391 93.271 C 91.426 93.271,91.467 93.237,91.482 93.196 C 91.496 93.154,91.527 93.138,91.550 93.159 C 91.595 93.201,91.453 93.352,91.053 93.690 C 90.534 94.127,91.142 93.836,92.072 93.202 C 92.636 92.818,92.683 92.798,92.657 92.955 C 92.638 93.066,92.658 93.070,92.925 93.007 C 93.230 92.935,92.982 93.243,92.105 94.021 C 91.883 94.219,91.794 94.335,91.841 94.364 C 91.891 94.395,91.870 94.445,91.770 94.532 C 91.691 94.600,91.643 94.656,91.663 94.656 C 91.718 94.656,92.552 94.353,92.820 94.235 C 92.952 94.177,93.090 94.119,93.126 94.107 C 93.259 94.060,94.279 93.439,94.430 93.313 C 94.517 93.240,94.710 93.078,94.860 92.952 C 95.010 92.827,95.303 92.599,95.511 92.446 C 96.558 91.678,97.111 91.175,99.207 89.087 C 100.324 87.974,100.530 87.747,101.139 86.966 C 101.663 86.294,102.596 85.225,103.707 84.025 C 105.441 82.150,107.220 79.009,109.588 73.641 C 110.248 72.146,110.452 71.725,110.536 71.690 C 110.641 71.646,110.593 72.018,110.437 72.462 C 110.225 73.062,110.277 73.303,110.553 73.008 C 110.631 72.925,110.717 72.879,110.744 72.905 C 110.832 72.994,110.307 74.408,109.950 75.039 C 109.913 75.105,109.914 75.154,109.952 75.178 C 109.984 75.198,110.011 75.185,110.011 75.150 C 110.011 75.115,110.038 75.087,110.071 75.087 C 110.169 75.087,110.140 75.253,109.989 75.555 C 109.911 75.711,109.831 75.907,109.810 75.990 C 109.774 76.138,109.291 76.865,109.067 77.109 C 108.737 77.467,108.527 77.901,108.751 77.763 C 108.787 77.741,108.744 77.837,108.656 77.976 C 108.426 78.341,108.501 78.331,108.920 77.943 C 109.122 77.756,109.288 77.616,109.288 77.632 C 109.288 77.746,108.797 78.706,108.511 79.151 C 108.319 79.449,108.046 79.890,107.904 80.132 C 107.762 80.373,107.432 80.858,107.172 81.210 C 106.606 81.973,106.561 82.100,106.956 81.819 C 107.412 81.494,106.654 82.557,106.172 82.919 C 105.752 83.234,105.179 83.822,104.738 84.390 C 104.559 84.621,104.303 84.942,104.170 85.103 C 103.785 85.567,103.940 85.538,104.757 84.992 C 105.599 84.430,105.647 84.415,105.386 84.793 C 105.287 84.937,105.163 85.158,105.111 85.284 C 105.058 85.410,104.939 85.626,104.846 85.764 C 104.592 86.141,104.579 86.166,104.643 86.166 C 104.709 86.166,105.410 85.644,106.126 85.062 C 106.390 84.847,106.626 84.683,106.649 84.697 C 106.689 84.722,107.576 83.989,107.676 83.849 C 107.701 83.815,107.721 83.806,107.721 83.828 C 107.724 83.930,108.867 82.657,110.005 81.289 C 111.937 78.962,113.819 75.735,115.289 72.226 C 115.758 71.107,116.222 70.148,116.278 70.182 C 116.304 70.198,116.412 70.028,116.518 69.804 C 116.623 69.580,116.900 69.003,117.133 68.523 C 117.537 67.688,117.862 66.911,118.167 66.045 C 118.446 65.256,118.812 63.162,118.918 61.749 C 118.953 61.286,119.021 60.500,119.070 60.003 C 119.118 59.506,119.185 58.742,119.219 58.304 C 119.253 57.866,119.321 57.337,119.369 57.130 C 119.418 56.922,119.473 56.677,119.492 56.586 C 119.592 56.109,119.713 56.481,119.743 57.354 C 119.769 58.119,119.872 58.873,119.957 58.926 C 120.017 58.963,120.229 58.510,120.286 58.227 C 120.312 58.097,120.340 58.061,120.373 58.115 C 120.515 58.345,120.630 57.581,120.588 56.691 C 120.520 55.233,120.234 53.909,119.913 53.562 L 119.765 53.403 119.765 53.989 C 119.765 54.774,119.719 54.680,119.580 53.611 C 119.434 52.489,119.429 52.467,119.294 52.431 C 119.055 52.369,118.756 51.576,118.720 50.911 C 118.687 50.288,118.703 50.246,118.801 50.703 C 118.847 50.922,118.853 50.866,118.834 50.399 C 118.813 49.894,118.818 49.860,118.873 50.113 C 119.049 50.920,119.022 50.033,118.838 48.969 C 118.723 48.306,118.723 48.277,118.827 48.472 C 118.871 48.555,118.967 48.961,119.041 49.375 C 119.266 50.647,119.433 50.814,119.373 49.706 C 119.311 48.578,119.001 47.075,118.708 46.487 C 118.558 46.186,118.027 44.273,117.938 43.715 L 117.905 43.504 117.991 43.685 C 118.039 43.784,118.134 44.022,118.203 44.212 C 118.394 44.738,118.440 44.642,118.440 43.723 C 118.440 42.979,118.421 42.823,118.266 42.293 C 117.921 41.114,117.808 40.437,117.815 39.604 C 117.823 38.729,117.834 38.699,118.049 38.936 L 118.206 39.109 118.171 38.621 C 118.139 38.171,118.269 37.762,118.361 38.025 C 118.419 38.192,118.751 38.717,118.799 38.717 C 118.935 38.717,118.871 37.896,118.728 37.805 C 118.686 37.778,118.675 37.755,118.704 37.755 C 118.733 37.754,118.727 37.719,118.692 37.676 C 118.656 37.634,118.601 37.491,118.568 37.360 C 118.421 36.768,118.306 36.395,118.255 36.342 C 118.225 36.311,118.199 36.243,118.199 36.191 C 118.199 36.140,118.159 36.021,118.109 35.926 C 118.060 35.832,118.033 35.733,118.049 35.707 C 118.065 35.681,118.038 35.627,117.990 35.587 C 117.941 35.547,117.884 35.422,117.863 35.309 C 117.842 35.197,117.799 35.105,117.766 35.105 C 117.734 35.105,117.719 35.071,117.733 35.029 C 117.747 34.988,117.709 34.865,117.648 34.757 C 117.587 34.648,117.537 34.519,117.537 34.471 C 117.537 34.422,117.511 34.382,117.479 34.382 C 117.447 34.382,117.436 34.341,117.455 34.292 C 117.474 34.242,117.462 34.201,117.429 34.201 C 117.395 34.201,117.349 34.091,117.326 33.956 C 117.303 33.822,117.248 33.697,117.204 33.680 C 117.160 33.663,117.138 33.611,117.156 33.565 C 117.174 33.518,117.147 33.464,117.096 33.444 C 117.045 33.425,117.018 33.370,117.036 33.323 C 117.054 33.276,117.035 33.238,116.995 33.238 C 116.951 33.238,116.934 33.190,116.953 33.118 C 116.970 33.051,116.966 32.997,116.945 32.997 C 116.895 32.996,116.754 32.699,116.754 32.594 C 116.754 32.551,116.712 32.515,116.661 32.515 C 116.609 32.515,116.582 32.491,116.601 32.461 C 116.619 32.431,116.581 32.282,116.516 32.129 C 116.451 31.977,116.417 31.853,116.440 31.852 C 116.464 31.852,116.443 31.825,116.393 31.794 C 116.344 31.762,116.302 31.702,116.301 31.659 C 116.299 31.617,116.183 31.346,116.041 31.057 C 115.900 30.768,115.784 30.510,115.784 30.485 C 115.783 30.459,115.748 30.397,115.706 30.348 C 115.629 30.258,115.535 30.061,115.525 29.969 C 115.522 29.943,115.483 29.899,115.437 29.871 C 115.391 29.842,115.373 29.789,115.396 29.752 C 115.419 29.715,115.395 29.668,115.343 29.648 C 115.291 29.629,115.249 29.561,115.249 29.498 C 115.249 29.436,115.219 29.384,115.182 29.384 C 115.146 29.384,115.132 29.343,115.151 29.292 C 115.172 29.238,115.148 29.184,115.094 29.164 C 115.043 29.144,115.016 29.091,115.033 29.045 C 115.050 29.000,115.038 28.963,115.006 28.963 C 114.974 28.963,114.901 28.854,114.843 28.722 C 114.786 28.589,114.718 28.481,114.693 28.481 C 114.668 28.481,114.647 28.430,114.647 28.367 C 114.647 28.304,114.605 28.237,114.553 28.217 C 114.501 28.197,114.477 28.151,114.500 28.114 C 114.523 28.076,114.505 28.023,114.459 27.995 C 114.413 27.967,114.374 27.922,114.371 27.896 C 114.359 27.787,114.225 27.518,114.182 27.517 C 114.116 27.517,113.981 27.210,114.020 27.148 C 114.038 27.119,114.010 27.096,113.958 27.096 C 113.906 27.096,113.864 27.045,113.864 26.982 C 113.864 26.920,113.823 26.853,113.773 26.833 C 113.723 26.814,113.687 26.777,113.693 26.752 C 113.704 26.697,113.618 26.478,113.568 26.434 C 113.508 26.382,113.381 26.168,113.344 26.058 C 113.324 26.000,113.284 25.952,113.255 25.952 C 113.226 25.952,113.202 25.918,113.202 25.876 C 113.202 25.835,113.134 25.727,113.051 25.638 C 112.969 25.549,112.901 25.434,112.901 25.383 C 112.901 25.332,112.874 25.290,112.841 25.290 C 112.807 25.290,112.780 25.248,112.780 25.198 C 112.780 25.147,112.738 25.089,112.687 25.069 C 112.635 25.050,112.607 24.996,112.624 24.951 C 112.642 24.904,112.618 24.868,112.568 24.868 C 112.519 24.868,112.479 24.814,112.479 24.748 C 112.479 24.682,112.451 24.627,112.416 24.627 C 112.380 24.627,112.369 24.600,112.389 24.567 C 112.410 24.533,112.384 24.490,112.333 24.470 C 112.281 24.450,112.238 24.383,112.238 24.320 C 112.238 24.257,112.199 24.206,112.150 24.206 C 112.096 24.206,112.075 24.171,112.096 24.116 C 112.118 24.058,112.095 24.025,112.034 24.025 C 111.978 24.025,111.937 23.975,111.937 23.905 C 111.937 23.839,111.898 23.784,111.849 23.784 C 111.799 23.784,111.774 23.749,111.792 23.702 C 111.810 23.656,111.780 23.602,111.726 23.582 C 111.673 23.561,111.646 23.517,111.666 23.483 C 111.687 23.450,111.662 23.406,111.610 23.386 C 111.558 23.366,111.516 23.311,111.516 23.264 C 111.516 23.217,111.475 23.163,111.426 23.144 C 111.376 23.125,111.351 23.085,111.370 23.055 C 111.388 23.025,111.361 22.985,111.309 22.965 C 111.257 22.945,111.215 22.890,111.215 22.843 C 111.215 22.796,111.174 22.741,111.125 22.722 C 111.075 22.704,111.050 22.664,111.068 22.634 C 111.087 22.604,111.058 22.562,111.004 22.542 C 110.951 22.521,110.920 22.470,110.936 22.428 C 110.952 22.386,110.911 22.337,110.843 22.319 C 110.776 22.302,110.739 22.258,110.761 22.223 C 110.783 22.187,110.757 22.141,110.703 22.120 C 110.650 22.100,110.619 22.048,110.635 22.006 C 110.651 21.964,110.610 21.915,110.542 21.898 C 110.475 21.880,110.436 21.840,110.456 21.808 C 110.475 21.776,110.451 21.734,110.402 21.715 C 110.352 21.696,110.312 21.641,110.312 21.594 C 110.312 21.546,110.290 21.497,110.263 21.486 C 110.236 21.475,110.095 21.304,109.950 21.105 C 109.805 20.906,109.665 20.735,109.638 20.724 C 109.611 20.713,109.589 20.665,109.589 20.618 C 109.589 20.571,109.562 20.533,109.529 20.533 C 109.496 20.533,109.469 20.495,109.469 20.449 C 109.469 20.403,109.428 20.350,109.378 20.330 C 109.329 20.311,109.288 20.254,109.288 20.204 C 109.288 20.153,109.246 20.111,109.194 20.111 C 109.142 20.111,109.114 20.089,109.130 20.063 C 109.147 20.036,109.081 19.948,108.983 19.868 C 108.886 19.787,108.806 19.694,108.806 19.660 C 108.806 19.626,108.739 19.525,108.656 19.436 C 108.573 19.347,108.505 19.259,108.505 19.242 C 108.505 19.173,108.294 18.967,108.223 18.967 C 108.181 18.967,108.163 18.928,108.182 18.877 C 108.204 18.820,108.182 18.787,108.120 18.787 C 108.067 18.787,108.023 18.760,108.023 18.726 C 108.023 18.693,107.976 18.617,107.918 18.556 C 107.860 18.496,107.751 18.367,107.676 18.270 C 107.516 18.064,107.060 17.542,106.759 17.220 C 106.272 16.699,106.128 16.526,106.142 16.484 C 106.150 16.459,106.122 16.438,106.080 16.438 C 106.009 16.438,105.796 16.234,105.796 16.167 C 105.796 16.112,105.555 15.896,105.495 15.896 C 105.461 15.896,105.434 15.870,105.434 15.837 C 105.434 15.773,103.900 14.210,103.837 14.210 C 103.791 14.210,103.628 14.051,103.628 14.005 C 103.628 13.952,103.425 13.729,103.378 13.729 C 103.354 13.729,103.127 13.526,102.873 13.277 C 102.619 13.029,102.391 12.826,102.366 12.826 C 102.341 12.826,102.269 12.758,102.207 12.675 C 102.145 12.592,102.060 12.524,102.018 12.524 C 101.976 12.524,101.942 12.484,101.942 12.434 C 101.942 12.384,101.911 12.344,101.874 12.344 C 101.836 12.344,101.742 12.276,101.666 12.193 C 101.589 12.110,101.508 12.043,101.485 12.043 C 101.463 12.043,101.355 11.948,101.246 11.832 C 101.136 11.716,101.022 11.621,100.991 11.621 C 100.960 11.621,100.884 11.554,100.822 11.471 C 100.760 11.388,100.678 11.320,100.641 11.320 C 100.603 11.320,100.491 11.225,100.392 11.109 C 100.293 10.994,100.185 10.899,100.152 10.899 C 100.119 10.899,100.041 10.831,99.979 10.748 C 99.917 10.665,99.825 10.598,99.774 10.598 C 99.724 10.598,99.631 10.530,99.569 10.447 C 99.507 10.364,99.425 10.297,99.388 10.297 C 99.350 10.297,99.280 10.242,99.232 10.176 C 99.185 10.110,99.109 10.056,99.064 10.056 C 99.019 10.056,98.942 10.015,98.892 9.965 C 98.814 9.887,98.642 9.845,98.495 9.868 C 98.470 9.872,98.449 9.855,98.449 9.830 C 98.449 9.805,98.389 9.779,98.314 9.773 C 98.240 9.766,98.084 9.745,97.968 9.725 C 97.852 9.705,97.669 9.685,97.561 9.681 C 97.454 9.676,97.366 9.649,97.366 9.620 C 97.366 9.591,97.337 9.584,97.303 9.606 C 97.208 9.664,97.297 9.882,97.504 10.100 C 97.685 10.291,98.041 10.842,98.252 11.260 C 98.311 11.376,98.382 11.487,98.409 11.508 C 98.437 11.528,98.457 11.562,98.455 11.583 C 98.434 11.734,98.471 11.817,98.622 11.964 C 98.718 12.057,98.937 12.323,99.111 12.555 C 99.284 12.786,99.594 13.152,99.800 13.367 C 100.237 13.825,100.866 14.581,101.142 14.983 C 101.249 15.137,101.425 15.386,101.533 15.534 C 101.642 15.683,101.765 15.898,101.807 16.013 C 101.849 16.128,101.904 16.237,101.929 16.255 C 102.063 16.352,102.725 17.251,102.675 17.268 C 102.611 17.289,101.821 16.514,101.821 16.430 C 101.821 16.401,101.781 16.378,101.731 16.378 C 101.681 16.378,101.641 16.351,101.641 16.318 C 101.641 16.285,101.600 16.258,101.551 16.258 C 101.501 16.258,101.460 16.229,101.460 16.193 C 101.460 16.123,101.312 15.957,101.249 15.957 C 101.189 15.957,101.039 15.791,101.039 15.725 C 101.039 15.692,100.957 15.630,100.858 15.586 C 100.759 15.542,100.677 15.476,100.677 15.440 C 100.677 15.404,100.613 15.340,100.533 15.298 C 100.454 15.255,100.355 15.156,100.313 15.077 C 100.270 14.998,100.199 14.933,100.155 14.933 C 100.111 14.933,100.075 14.906,100.075 14.873 C 100.075 14.840,100.047 14.813,100.013 14.813 C 99.979 14.813,99.820 14.677,99.659 14.512 C 99.499 14.346,99.349 14.210,99.325 14.210 C 99.302 14.210,99.190 14.116,99.078 14.000 C 98.965 13.884,98.859 13.789,98.843 13.789 C 98.796 13.789,98.571 13.597,98.401 13.413 C 98.317 13.322,98.222 13.247,98.190 13.247 C 98.157 13.247,98.045 13.159,97.940 13.051 C 97.835 12.944,97.676 12.817,97.587 12.770 C 97.499 12.723,97.426 12.662,97.426 12.635 C 97.426 12.607,97.391 12.585,97.349 12.585 C 97.306 12.585,97.182 12.490,97.073 12.374 C 96.964 12.258,96.849 12.163,96.818 12.163 C 96.788 12.163,96.677 12.082,96.573 11.983 C 96.469 11.883,96.348 11.802,96.303 11.802 C 96.258 11.802,96.222 11.779,96.222 11.752 C 96.222 11.724,96.147 11.664,96.056 11.617 C 95.965 11.571,95.831 11.471,95.758 11.396 C 95.685 11.321,95.597 11.260,95.562 11.260 C 95.527 11.260,95.499 11.233,95.499 11.200 C 95.499 11.167,95.468 11.140,95.431 11.140 C 95.393 11.140,95.319 11.092,95.265 11.034 C 95.212 10.976,95.093 10.890,95.002 10.843 C 94.911 10.796,94.837 10.735,94.837 10.708 C 94.837 10.680,94.800 10.658,94.756 10.658 C 94.711 10.658,94.626 10.604,94.566 10.537 C 94.506 10.471,94.422 10.417,94.380 10.417 C 94.338 10.417,94.254 10.354,94.193 10.277 C 94.132 10.200,94.054 10.146,94.019 10.158 C 93.984 10.169,93.905 10.124,93.844 10.057 C 93.784 9.990,93.701 9.935,93.661 9.935 C 93.620 9.935,93.553 9.894,93.511 9.844 C 93.469 9.794,93.344 9.709,93.233 9.656 C 93.121 9.603,93.029 9.516,93.028 9.462 C 93.027 9.379,93.013 9.381,92.938 9.480 C 92.863 9.580,92.850 9.582,92.850 9.497 C 92.850 9.442,92.795 9.369,92.729 9.333 C 92.636 9.283,92.609 9.287,92.609 9.351 C 92.609 9.408,92.553 9.425,92.428 9.406 C 92.070 9.354,92.339 9.726,93.045 10.260 C 93.170 10.354,93.271 10.469,93.271 10.514 C 93.271 10.560,93.291 10.599,93.316 10.600 C 93.341 10.602,93.456 10.742,93.572 10.910 C 93.688 11.079,93.884 11.331,94.008 11.470 C 94.132 11.609,94.219 11.737,94.202 11.754 C 94.185 11.772,94.269 11.864,94.390 11.959 C 94.820 12.300,94.930 12.415,94.852 12.445 C 94.796 12.467,94.801 12.497,94.871 12.567 C 94.922 12.618,94.951 12.696,94.934 12.738 C 94.905 12.814,95.305 13.151,95.727 13.407 C 95.835 13.473,96.059 13.646,96.224 13.793 C 96.703 14.220,97.665 15.212,97.669 15.284 C 97.670 15.306,97.806 15.472,97.971 15.651 C 98.430 16.152,98.238 16.158,97.727 15.660 C 97.487 15.426,97.266 15.234,97.235 15.234 C 97.203 15.234,97.058 15.112,96.911 14.963 C 96.764 14.814,96.622 14.692,96.596 14.692 C 96.570 14.692,96.428 14.584,96.282 14.451 C 96.135 14.319,95.992 14.210,95.964 14.210 C 95.936 14.210,95.823 14.116,95.714 14.000 C 95.604 13.884,95.488 13.789,95.456 13.789 C 95.423 13.789,95.311 13.708,95.207 13.608 C 95.103 13.509,94.991 13.428,94.957 13.428 C 94.923 13.428,94.811 13.346,94.707 13.247 C 94.603 13.148,94.495 13.066,94.467 13.066 C 94.422 13.066,94.302 12.979,94.092 12.795 C 94.055 12.762,93.949 12.697,93.858 12.650 C 93.767 12.603,93.693 12.527,93.693 12.481 C 93.693 12.435,93.666 12.414,93.632 12.434 C 93.599 12.455,93.572 12.443,93.572 12.408 C 93.572 12.373,93.524 12.344,93.465 12.344 C 93.406 12.344,93.319 12.290,93.271 12.223 C 93.223 12.157,93.156 12.103,93.122 12.103 C 93.088 12.103,92.966 12.022,92.850 11.922 C 92.734 11.823,92.605 11.742,92.564 11.742 C 92.522 11.742,92.488 11.715,92.488 11.681 C 92.488 11.648,92.448 11.621,92.398 11.621 C 92.348 11.621,92.308 11.594,92.308 11.561 C 92.308 11.528,92.274 11.501,92.232 11.501 C 92.191 11.501,92.078 11.433,91.982 11.350 C 91.886 11.267,91.770 11.200,91.724 11.200 C 91.679 11.200,91.626 11.159,91.607 11.110 C 91.588 11.060,91.548 11.035,91.519 11.053 C 91.489 11.071,91.465 11.058,91.465 11.023 C 91.465 10.988,91.429 10.959,91.386 10.959 C 91.342 10.959,91.254 10.911,91.190 10.854 C 91.126 10.796,90.999 10.710,90.908 10.663 C 90.817 10.616,90.742 10.555,90.742 10.527 C 90.742 10.500,90.690 10.477,90.626 10.477 C 90.562 10.477,90.474 10.443,90.430 10.402 C 90.304 10.282,89.862 10.056,89.755 10.056 C 89.702 10.056,89.658 10.031,89.658 10.001 C 89.658 9.971,89.577 9.919,89.478 9.884 C 89.371 9.847,89.295 9.777,89.292 9.713 C 89.290 9.653,89.274 9.637,89.258 9.676 C 89.224 9.759,88.936 9.656,88.936 9.561 C 88.936 9.531,88.910 9.522,88.880 9.541 C 88.849 9.560,88.805 9.547,88.783 9.511 C 88.761 9.475,88.705 9.460,88.659 9.478 C 88.608 9.497,88.574 9.471,88.574 9.412 C 88.574 9.357,88.557 9.330,88.536 9.351 C 88.516 9.372,88.441 9.359,88.371 9.321 C 88.259 9.262,88.253 9.265,88.320 9.346 C 88.383 9.423,88.381 9.446,88.306 9.474 C 88.199 9.516,88.248 9.694,88.367 9.694 C 88.412 9.694,88.471 9.736,88.499 9.786 C 88.528 9.837,88.632 9.888,88.732 9.901 C 89.012 9.936,89.417 10.069,89.417 10.125 C 89.417 10.153,89.455 10.176,89.501 10.176 C 89.547 10.176,89.599 10.213,89.616 10.257 C 89.641 10.322,89.597 10.329,89.397 10.290 C 89.043 10.222,89.010 10.228,89.146 10.336 C 89.262 10.428,89.259 10.430,89.072 10.396 C 88.703 10.328,88.680 10.415,89.006 10.635 C 89.215 10.775,89.354 10.830,89.441 10.806 C 89.533 10.780,89.545 10.786,89.485 10.828 C 89.421 10.872,89.468 10.915,89.681 11.010 C 89.835 11.078,89.976 11.172,89.994 11.219 C 90.012 11.266,90.154 11.395,90.309 11.504 C 90.650 11.745,91.497 12.594,91.931 13.131 C 92.105 13.346,92.327 13.569,92.425 13.627 C 92.845 13.875,94.135 15.187,94.532 15.770 C 94.613 15.889,94.783 16.086,94.909 16.208 C 95.035 16.329,95.138 16.454,95.138 16.484 C 95.138 16.514,95.276 16.678,95.446 16.850 C 95.615 17.021,95.730 17.161,95.702 17.162 C 95.673 17.162,95.678 17.183,95.714 17.207 C 95.749 17.231,95.870 17.387,95.982 17.552 C 96.094 17.718,96.275 17.948,96.384 18.064 C 96.574 18.266,96.627 18.365,96.544 18.365 C 96.487 18.365,95.914 18.006,95.816 17.908 C 95.769 17.861,95.710 17.823,95.685 17.823 C 95.659 17.823,95.582 17.776,95.513 17.718 C 95.444 17.660,95.274 17.518,95.135 17.402 C 94.996 17.286,94.823 17.134,94.750 17.063 C 94.677 16.993,94.504 16.861,94.366 16.769 C 94.227 16.678,94.114 16.575,94.114 16.541 C 94.114 16.507,94.097 16.496,94.076 16.517 C 94.055 16.538,93.916 16.434,93.766 16.287 C 93.617 16.140,93.438 16.002,93.368 15.980 C 93.298 15.958,93.180 15.875,93.106 15.795 C 93.031 15.715,92.970 15.666,92.970 15.686 C 92.970 15.706,92.882 15.639,92.774 15.538 C 92.667 15.438,92.550 15.355,92.516 15.355 C 92.482 15.355,92.334 15.246,92.187 15.114 C 92.041 14.981,91.893 14.873,91.858 14.873 C 91.824 14.872,91.714 14.795,91.613 14.701 C 91.512 14.606,91.329 14.482,91.207 14.423 C 91.084 14.365,90.983 14.293,90.983 14.264 C 90.983 14.234,90.942 14.210,90.893 14.210 C 90.843 14.210,90.802 14.188,90.802 14.160 C 90.802 14.133,90.728 14.072,90.637 14.025 C 90.546 13.978,90.438 13.912,90.398 13.879 C 90.358 13.846,90.284 13.785,90.235 13.744 C 90.186 13.702,90.103 13.669,90.052 13.669 C 90.001 13.669,89.959 13.646,89.959 13.618 C 89.959 13.590,89.859 13.515,89.737 13.452 C 89.518 13.339,89.361 13.230,89.204 13.081 C 89.161 13.040,89.082 13.006,89.030 13.006 C 88.978 13.006,88.936 12.985,88.936 12.960 C 88.936 12.934,88.834 12.860,88.710 12.795 C 88.586 12.729,88.471 12.660,88.454 12.640 C 88.437 12.620,88.207 12.488,87.942 12.347 C 87.677 12.205,87.447 12.068,87.430 12.041 C 87.413 12.014,87.325 11.973,87.234 11.951 C 87.143 11.928,87.069 11.892,87.068 11.871 C 87.068 11.849,86.960 11.780,86.828 11.717 C 86.695 11.654,86.587 11.579,86.587 11.551 C 86.587 11.524,86.533 11.501,86.467 11.501 C 86.401 11.501,86.347 11.474,86.347 11.441 C 86.347 11.407,86.326 11.383,86.301 11.387 C 86.207 11.400,85.985 11.304,85.985 11.249 C 85.985 11.218,85.960 11.208,85.930 11.227 C 85.900 11.245,85.866 11.237,85.855 11.209 C 85.829 11.143,84.004 10.236,83.897 10.236 C 83.853 10.236,83.818 10.209,83.818 10.176 C 83.818 10.143,83.797 10.119,83.772 10.122 C 83.681 10.136,83.456 10.040,83.456 9.988 C 83.456 9.959,83.436 9.940,83.411 9.945 C 83.362 9.955,83.145 9.873,82.764 9.699 C 82.422 9.543,82.289 9.493,82.237 9.504 C 82.212 9.509,82.192 9.487,82.192 9.454 C 82.192 9.420,82.152 9.393,82.103 9.393 C 82.055 9.393,81.867 9.326,81.686 9.243 C 81.505 9.160,81.328 9.092,81.292 9.092 C 81.257 9.092,81.228 9.068,81.228 9.039 C 81.228 9.009,81.194 8.987,81.153 8.989 C 81.000 8.997,80.686 8.895,80.686 8.837 C 80.686 8.805,80.647 8.794,80.598 8.812 C 80.549 8.831,80.482 8.800,80.449 8.744 C 80.410 8.677,80.388 8.669,80.387 8.720 C 80.386 8.780,80.362 8.776,80.291 8.705 C 80.239 8.653,80.164 8.606,80.125 8.601 C 79.965 8.581,79.924 8.567,79.693 8.462 C 79.560 8.401,79.418 8.357,79.377 8.363 C 79.335 8.370,79.302 8.351,79.302 8.322 C 79.302 8.293,79.268 8.267,79.226 8.264 C 79.053 8.251,78.789 8.178,78.726 8.126 C 78.689 8.095,78.639 8.089,78.615 8.113 C 78.592 8.136,78.552 8.122,78.527 8.082 C 78.502 8.042,78.388 7.994,78.274 7.976 C 77.909 7.918,77.885 7.913,77.825 7.879 C 77.793 7.861,77.441 7.851,77.044 7.856 C 76.589 7.862,76.305 7.842,76.277 7.802 C 76.250 7.762,76.232 7.761,76.231 7.798 M68.518 10.495 C 68.407 10.572,67.701 10.703,67.654 10.655 C 67.618 10.619,67.617 10.595,67.653 10.591 C 67.685 10.588,67.886 10.553,68.102 10.514 C 68.453 10.451,68.591 10.444,68.518 10.495 M38.206 12.012 C 38.073 12.058,37.606 12.206,37.168 12.343 C 36.471 12.560,36.127 12.724,36.207 12.804 C 36.243 12.840,39.151 12.661,39.289 12.613 C 40.006 12.368,40.252 12.110,39.786 12.094 C 39.480 12.083,39.451 12.078,39.263 12.001 C 39.044 11.912,38.479 11.918,38.206 12.012 M30.739 17.157 C 30.255 17.276,28.166 18.526,27.404 19.153 C 27.212 19.311,27.252 19.332,27.598 19.258 C 28.006 19.171,28.011 19.229,27.630 19.587 C 27.051 20.131,27.161 20.355,27.788 19.909 C 27.888 19.839,28.003 19.789,28.044 19.798 C 28.086 19.808,28.120 19.787,28.120 19.753 C 28.120 19.718,28.174 19.690,28.240 19.690 C 28.306 19.690,28.361 19.660,28.361 19.623 C 28.361 19.587,28.403 19.573,28.455 19.593 C 28.528 19.621,28.540 19.601,28.509 19.503 C 28.474 19.393,28.487 19.383,28.610 19.422 C 28.740 19.463,28.744 19.458,28.662 19.359 C 28.580 19.260,28.583 19.254,28.707 19.294 C 28.818 19.329,28.835 19.318,28.801 19.232 C 28.770 19.151,28.784 19.136,28.864 19.167 C 28.928 19.191,28.980 19.172,29.002 19.117 C 29.020 19.068,29.074 19.028,29.120 19.028 C 29.166 19.028,29.204 18.999,29.204 18.963 C 29.204 18.926,29.255 18.915,29.324 18.937 C 29.390 18.958,29.445 18.953,29.445 18.925 C 29.445 18.869,29.884 18.666,30.007 18.666 C 30.051 18.666,30.106 18.647,30.129 18.624 C 30.152 18.601,30.207 18.577,30.252 18.571 C 30.393 18.550,30.734 18.370,30.897 18.230 C 30.983 18.155,31.144 18.026,31.253 17.944 C 31.498 17.758,31.711 17.584,31.854 17.452 C 31.914 17.397,31.982 17.370,32.005 17.392 C 32.028 17.414,32.037 17.380,32.025 17.316 C 31.998 17.170,31.729 17.093,31.489 17.162 C 31.379 17.193,31.322 17.192,31.344 17.157 C 31.363 17.126,31.370 17.101,31.359 17.101 C 31.349 17.101,31.252 17.126,31.144 17.157 C 31.022 17.192,30.961 17.192,30.982 17.157 C 31.021 17.094,30.997 17.094,30.739 17.157 M39.608 17.369 C 38.902 17.621,37.579 18.229,36.911 18.610 C 36.729 18.713,36.350 18.927,36.068 19.085 C 35.060 19.649,34.890 19.752,34.623 19.961 C 34.211 20.282,32.857 21.167,32.803 21.150 C 32.778 21.142,32.756 21.181,32.756 21.237 C 32.756 21.316,32.740 21.323,32.686 21.269 C 32.632 21.215,32.656 21.166,32.790 21.061 C 33.646 20.389,33.256 20.470,32.223 21.178 C 31.578 21.622,31.453 21.685,31.509 21.539 C 31.567 21.388,31.471 21.367,31.182 21.469 L 30.920 21.562 31.221 21.246 C 31.386 21.073,31.630 20.834,31.762 20.717 C 32.263 20.271,32.336 20.184,32.294 20.076 C 32.267 20.005,32.277 19.985,32.325 20.015 C 32.367 20.041,32.395 20.020,32.395 19.960 C 32.395 19.806,32.117 19.885,31.206 20.297 C 31.066 20.361,30.938 20.412,30.923 20.412 C 30.907 20.412,30.650 20.560,30.353 20.741 C 29.884 21.025,29.651 21.196,29.361 21.469 C 29.324 21.504,29.009 21.747,28.662 22.009 C 28.314 22.272,27.978 22.528,27.915 22.579 C 26.968 23.336,23.802 26.475,23.329 27.126 C 23.136 27.391,22.786 27.825,22.552 28.090 C 22.317 28.355,22.018 28.707,21.887 28.872 C 21.756 29.038,21.429 29.404,21.160 29.685 C 19.933 30.973,19.536 31.463,18.800 32.598 C 17.964 33.885,17.124 35.387,16.859 36.068 C 16.813 36.184,16.761 36.292,16.743 36.309 C 16.614 36.424,15.151 39.497,14.649 40.705 C 14.532 40.986,14.363 41.379,14.274 41.578 C 14.184 41.776,14.076 42.027,14.033 42.135 C 13.990 42.242,13.931 42.330,13.902 42.330 C 13.873 42.330,13.849 42.366,13.849 42.409 C 13.849 42.452,13.786 42.573,13.708 42.678 L 13.567 42.869 13.560 42.662 C 13.555 42.548,13.619 42.277,13.701 42.060 C 13.954 41.387,13.903 41.173,13.566 41.499 C 13.393 41.667,13.367 41.676,13.367 41.573 C 13.367 41.403,13.655 40.543,13.819 40.223 C 14.139 39.596,14.215 39.342,14.064 39.400 C 13.947 39.445,13.981 39.296,14.182 38.870 C 14.271 38.683,14.329 38.515,14.311 38.497 C 14.284 38.470,14.469 38.175,14.923 37.520 C 14.978 37.440,15.069 37.334,15.126 37.283 C 15.182 37.232,15.211 37.164,15.191 37.131 C 15.169 37.095,15.197 37.088,15.261 37.112 C 15.340 37.143,15.359 37.130,15.333 37.062 C 15.314 37.012,15.325 36.971,15.357 36.971 C 15.391 36.971,15.386 36.924,15.345 36.859 C 15.288 36.767,15.298 36.713,15.395 36.573 C 15.697 36.138,15.607 36.169,15.129 36.665 C 14.871 36.932,14.754 36.875,14.952 36.578 C 14.996 36.513,15.069 36.365,15.113 36.249 C 15.158 36.133,15.316 35.848,15.465 35.616 C 15.614 35.385,15.922 34.885,16.152 34.507 C 16.381 34.129,16.769 33.550,17.015 33.220 C 17.261 32.890,17.462 32.597,17.462 32.568 C 17.462 32.488,17.393 32.505,17.275 32.612 C 17.216 32.665,17.140 32.699,17.106 32.687 C 16.979 32.644,17.649 31.798,18.114 31.414 C 18.656 30.965,19.024 30.586,19.413 30.077 C 19.564 29.878,19.797 29.584,19.930 29.424 C 20.385 28.876,20.273 28.892,19.362 29.505 C 18.553 30.049,18.508 30.058,18.799 29.613 C 18.913 29.437,19.042 29.205,19.086 29.096 C 19.129 28.987,19.242 28.791,19.337 28.660 C 19.732 28.114,19.532 28.209,18.469 29.069 C 18.036 29.419,17.595 29.749,17.489 29.801 C 17.132 29.978,16.006 31.028,15.294 31.849 C 15.112 32.060,14.918 32.283,14.863 32.346 C 14.808 32.409,14.673 32.573,14.562 32.711 C 14.452 32.848,14.237 33.111,14.085 33.295 C 12.290 35.472,10.362 38.729,9.093 41.728 C 8.373 43.430,7.929 44.378,7.852 44.378 C 7.809 44.378,7.688 44.560,7.583 44.784 C 7.479 45.008,7.195 45.610,6.954 46.124 C 6.712 46.637,6.419 47.314,6.302 47.629 C 6.185 47.944,6.048 48.300,5.997 48.421 C 5.733 49.049,5.357 51.322,5.208 53.199 C 5.158 53.828,5.104 54.411,5.088 54.493 C 5.072 54.576,5.031 55.070,4.997 55.590 C 4.963 56.111,4.893 56.761,4.840 57.035 C 4.788 57.310,4.727 57.654,4.706 57.800 C 4.610 58.454,4.464 58.116,4.422 57.143 C 4.388 56.372,4.282 55.577,4.213 55.577 C 4.163 55.577,4.070 55.763,4.085 55.833 C 4.090 55.858,4.072 55.878,4.044 55.878 C 4.016 55.878,3.961 55.987,3.921 56.119 C 3.881 56.253,3.811 56.360,3.764 56.360 C 3.293 56.360,3.711 60.253,4.251 60.894 L 4.396 61.066 4.397 60.474 C 4.400 59.695,4.474 59.851,4.602 60.906 C 4.729 61.956,4.746 62.026,4.867 62.006 C 5.121 61.963,5.487 63.104,5.471 63.887 C 5.463 64.240,5.458 64.255,5.419 64.037 C 5.367 63.748,5.343 63.850,5.348 64.338 L 5.351 64.700 5.266 64.369 L 5.182 64.037 5.212 64.549 C 5.229 64.831,5.279 65.264,5.323 65.513 C 5.368 65.761,5.394 65.975,5.382 65.989 C 5.310 66.069,5.238 65.813,5.087 64.941 C 4.837 63.496,4.681 63.877,4.853 65.513 C 4.939 66.328,5.337 67.953,5.470 68.036 C 5.572 68.099,6.307 70.847,6.240 70.914 C 6.226 70.928,6.181 70.836,6.141 70.710 C 6.013 70.313,5.828 69.908,5.773 69.908 C 5.627 69.908,5.718 71.569,5.897 72.173 C 6.292 73.507,6.431 74.485,6.344 75.319 C 6.302 75.724,6.263 75.765,6.142 75.538 C 5.998 75.270,5.944 75.367,5.982 75.824 C 6.007 76.136,5.994 76.303,5.936 76.407 L 5.855 76.554 5.719 76.287 C 5.645 76.140,5.529 75.941,5.461 75.845 L 5.338 75.671 5.285 75.814 C 5.218 75.997,5.279 76.368,5.434 76.711 C 5.500 76.859,5.604 77.184,5.663 77.433 C 5.723 77.683,5.814 77.968,5.866 78.067 C 5.918 78.166,5.961 78.295,5.961 78.353 C 5.961 78.411,5.990 78.459,6.025 78.459 C 6.060 78.459,6.071 78.487,6.050 78.521 C 6.028 78.556,6.044 78.624,6.084 78.672 C 6.124 78.720,6.140 78.760,6.120 78.760 C 6.100 78.760,6.133 78.848,6.193 78.955 C 6.254 79.063,6.338 79.259,6.381 79.392 C 6.424 79.524,6.484 79.665,6.516 79.705 C 6.548 79.745,6.556 79.806,6.535 79.841 C 6.513 79.875,6.525 79.904,6.560 79.904 C 6.595 79.904,6.624 79.958,6.624 80.024 C 6.624 80.090,6.654 80.145,6.690 80.145 C 6.727 80.145,6.741 80.185,6.722 80.235 C 6.703 80.285,6.711 80.325,6.739 80.325 C 6.768 80.325,6.809 80.420,6.830 80.536 C 6.852 80.652,6.896 80.747,6.927 80.747 C 6.959 80.747,6.986 80.794,6.987 80.852 C 6.988 80.910,7.028 81.010,7.077 81.074 C 7.126 81.139,7.165 81.240,7.165 81.300 C 7.165 81.360,7.194 81.409,7.229 81.409 C 7.264 81.409,7.275 81.437,7.254 81.472 C 7.233 81.506,7.248 81.574,7.288 81.622 C 7.328 81.671,7.337 81.711,7.308 81.712 C 7.279 81.713,7.301 81.740,7.356 81.772 C 7.412 81.805,7.475 81.912,7.497 82.011 C 7.518 82.111,7.563 82.192,7.595 82.192 C 7.628 82.192,7.637 82.220,7.615 82.255 C 7.594 82.289,7.609 82.357,7.649 82.405 C 7.689 82.453,7.708 82.493,7.690 82.493 C 7.673 82.493,7.737 82.647,7.833 82.835 C 7.930 83.023,8.008 83.213,8.008 83.257 C 8.008 83.300,8.036 83.336,8.069 83.336 C 8.102 83.336,8.129 83.390,8.129 83.456 C 8.129 83.523,8.153 83.577,8.182 83.577 C 8.211 83.577,8.255 83.638,8.279 83.712 C 8.330 83.868,8.320 83.843,8.451 84.119 C 8.507 84.235,8.579 84.370,8.612 84.420 C 8.645 84.469,8.713 84.605,8.762 84.721 C 8.811 84.837,8.945 85.094,9.060 85.293 C 9.174 85.491,9.357 85.830,9.465 86.045 C 9.573 86.261,9.683 86.446,9.708 86.457 C 9.734 86.468,9.755 86.515,9.755 86.562 C 9.755 86.609,9.785 86.648,9.821 86.648 C 9.858 86.648,9.872 86.688,9.853 86.738 C 9.834 86.788,9.845 86.828,9.877 86.828 C 9.909 86.828,9.935 86.869,9.935 86.919 C 9.935 86.968,9.960 87.009,9.990 87.009 C 10.020 87.009,10.106 87.138,10.182 87.295 C 10.257 87.452,10.334 87.594,10.353 87.611 C 10.372 87.628,10.426 87.722,10.475 87.822 C 10.679 88.243,11.760 89.955,12.448 90.945 C 12.606 91.172,12.762 91.401,12.795 91.453 C 12.829 91.506,12.905 91.604,12.964 91.672 C 13.024 91.740,13.156 91.924,13.257 92.082 C 13.358 92.239,13.466 92.368,13.498 92.368 C 13.529 92.368,13.538 92.395,13.518 92.428 C 13.498 92.461,13.509 92.488,13.545 92.488 C 13.580 92.488,13.608 92.528,13.608 92.576 C 13.608 92.624,13.644 92.685,13.687 92.711 C 13.730 92.738,13.828 92.850,13.906 92.961 C 13.983 93.071,14.110 93.232,14.189 93.316 C 14.268 93.401,14.320 93.482,14.306 93.496 C 14.283 93.520,14.426 93.709,14.617 93.907 C 14.658 93.950,14.692 94.002,14.692 94.022 C 14.692 94.043,14.760 94.122,14.843 94.199 C 14.925 94.276,14.993 94.360,14.993 94.385 C 14.993 94.411,15.061 94.494,15.144 94.571 C 15.227 94.648,15.294 94.727,15.294 94.747 C 15.294 94.767,15.377 94.870,15.478 94.975 C 15.579 95.081,15.706 95.242,15.762 95.333 C 15.817 95.425,15.883 95.499,15.909 95.499 C 15.935 95.499,15.957 95.540,15.957 95.589 C 15.957 95.639,15.997 95.680,16.047 95.680 C 16.097 95.680,16.137 95.710,16.137 95.748 C 16.137 95.786,16.203 95.878,16.284 95.952 C 16.365 96.027,16.415 96.105,16.394 96.125 C 16.374 96.145,16.405 96.161,16.462 96.161 C 16.519 96.161,16.550 96.187,16.530 96.219 C 16.485 96.292,16.680 96.523,16.786 96.523 C 16.831 96.523,16.850 96.550,16.829 96.583 C 16.809 96.617,16.834 96.660,16.886 96.680 C 16.937 96.700,16.965 96.740,16.946 96.770 C 16.928 96.799,16.949 96.824,16.993 96.824 C 17.083 96.824,17.281 97.032,17.281 97.125 C 17.281 97.158,17.310 97.185,17.345 97.185 C 17.380 97.185,17.392 97.212,17.372 97.245 C 17.351 97.278,17.367 97.305,17.406 97.305 C 17.472 97.305,17.883 97.700,17.883 97.764 C 17.883 97.779,17.985 97.895,18.109 98.021 C 18.233 98.147,18.471 98.403,18.636 98.590 C 18.802 98.777,18.974 98.931,19.019 98.931 C 19.067 98.931,19.086 98.969,19.066 99.022 C 19.046 99.073,19.065 99.112,19.108 99.112 C 19.150 99.112,19.372 99.315,19.602 99.563 C 19.831 99.812,20.056 100.015,20.102 100.015 C 20.151 100.015,20.170 100.052,20.150 100.105 C 20.131 100.155,20.147 100.196,20.187 100.196 C 20.226 100.196,20.413 100.358,20.603 100.557 C 20.792 100.756,20.969 100.918,20.997 100.918 C 21.026 100.918,21.174 101.054,21.328 101.219 C 21.482 101.385,21.625 101.520,21.645 101.520 C 21.666 101.520,21.806 101.642,21.957 101.791 C 22.109 101.940,22.256 102.062,22.286 102.062 C 22.315 102.062,22.339 102.103,22.339 102.153 C 22.339 102.202,22.377 102.243,22.424 102.243 C 22.470 102.243,22.603 102.338,22.719 102.454 C 22.835 102.570,22.949 102.664,22.974 102.664 C 22.998 102.664,23.099 102.759,23.198 102.875 C 23.297 102.991,23.406 103.086,23.440 103.086 C 23.474 103.086,23.593 103.181,23.706 103.297 C 23.819 103.413,23.933 103.507,23.960 103.507 C 23.988 103.507,24.091 103.602,24.190 103.718 C 24.289 103.834,24.408 103.929,24.454 103.929 C 24.501 103.929,24.589 103.996,24.651 104.078 C 24.713 104.161,24.787 104.213,24.816 104.195 C 24.845 104.177,24.885 104.204,24.905 104.256 C 24.925 104.308,24.963 104.337,24.989 104.320 C 25.015 104.304,25.053 104.333,25.072 104.385 C 25.092 104.436,25.136 104.462,25.169 104.441 C 25.203 104.420,25.245 104.441,25.263 104.487 C 25.280 104.533,25.328 104.572,25.368 104.574 C 25.554 104.580,25.989 104.667,26.081 104.716 C 26.138 104.747,26.227 104.755,26.279 104.735 C 26.331 104.715,26.374 104.725,26.374 104.757 C 26.374 104.789,26.496 104.815,26.645 104.815 C 26.992 104.815,26.994 104.732,26.655 104.363 C 26.404 104.090,25.911 103.284,25.939 103.191 C 25.946 103.166,25.926 103.146,25.894 103.146 C 25.863 103.146,25.804 103.037,25.764 102.904 C 25.724 102.770,25.621 102.587,25.536 102.497 C 25.450 102.407,25.231 102.138,25.049 101.901 C 24.867 101.664,24.501 101.227,24.236 100.931 C 23.212 99.785,22.631 99.012,22.430 98.531 C 22.384 98.421,22.196 98.145,22.012 97.917 C 21.708 97.542,21.517 97.163,21.789 97.477 C 21.851 97.548,21.917 97.607,21.935 97.607 C 21.953 97.607,22.131 97.769,22.330 97.968 C 22.528 98.166,22.722 98.329,22.760 98.329 C 22.797 98.329,22.811 98.356,22.791 98.389 C 22.770 98.422,22.784 98.449,22.820 98.449 C 22.857 98.449,23.146 98.707,23.464 99.022 C 23.782 99.336,24.066 99.594,24.096 99.594 C 24.126 99.594,24.309 99.756,24.502 99.955 C 24.695 100.154,24.870 100.316,24.890 100.316 C 24.939 100.316,25.146 100.486,25.350 100.692 C 25.440 100.784,25.533 100.858,25.557 100.858 C 25.581 100.858,25.693 100.953,25.806 101.069 C 25.918 101.185,26.024 101.280,26.041 101.280 C 26.072 101.280,26.261 101.428,26.406 101.566 C 26.450 101.607,26.511 101.641,26.542 101.641 C 26.574 101.641,26.680 101.736,26.779 101.852 C 26.878 101.967,26.991 102.062,27.030 102.062 C 27.070 102.062,27.167 102.123,27.247 102.198 C 27.478 102.414,27.578 102.491,27.578 102.453 C 27.578 102.433,27.639 102.480,27.713 102.557 C 27.788 102.634,27.923 102.734,28.014 102.781 C 28.106 102.827,28.180 102.888,28.180 102.915 C 28.180 102.943,28.221 102.966,28.270 102.966 C 28.320 102.966,28.361 102.988,28.361 103.016 C 28.361 103.043,28.435 103.104,28.526 103.150 C 28.617 103.197,28.752 103.296,28.824 103.371 C 28.897 103.446,28.985 103.507,29.020 103.507 C 29.055 103.507,29.083 103.535,29.083 103.568 C 29.083 103.601,29.124 103.628,29.174 103.628 C 29.223 103.628,29.264 103.655,29.264 103.688 C 29.264 103.721,29.305 103.748,29.354 103.748 C 29.404 103.748,29.445 103.771,29.445 103.798 C 29.445 103.826,29.518 103.887,29.607 103.934 C 29.696 103.981,29.829 104.074,29.903 104.142 C 29.976 104.209,30.113 104.304,30.207 104.352 C 30.301 104.400,30.422 104.488,30.475 104.546 C 30.529 104.604,30.617 104.652,30.671 104.652 C 30.725 104.652,30.769 104.679,30.769 104.712 C 30.769 104.745,30.810 104.772,30.860 104.772 C 30.909 104.772,31.007 104.829,31.077 104.899 C 31.180 105.002,31.215 105.011,31.257 104.945 C 31.297 104.882,31.310 104.891,31.310 104.983 C 31.311 105.069,31.352 105.103,31.456 105.103 C 31.536 105.103,31.588 105.083,31.573 105.058 C 31.557 105.033,31.574 105.013,31.609 105.013 C 31.644 105.013,31.673 105.060,31.673 105.118 C 31.674 105.202,31.685 105.206,31.727 105.141 C 31.756 105.095,31.808 105.075,31.842 105.096 C 31.877 105.118,31.922 105.107,31.943 105.073 C 31.992 104.994,31.753 104.737,31.234 104.309 C 31.010 104.124,30.838 103.961,30.853 103.946 C 30.868 103.931,30.834 103.871,30.779 103.813 C 30.724 103.754,30.633 103.641,30.577 103.562 C 30.059 102.825,29.809 102.531,29.488 102.278 C 29.273 102.108,29.215 102.032,29.273 101.996 C 29.334 101.959,29.336 101.930,29.283 101.877 C 29.245 101.838,29.226 101.773,29.242 101.732 C 29.273 101.652,28.989 101.407,28.535 101.122 C 28.252 100.945,27.483 100.283,27.253 100.020 C 27.183 99.940,26.941 99.669,26.714 99.418 C 26.107 98.746,25.940 98.524,26.011 98.481 C 26.045 98.460,26.073 98.486,26.073 98.540 C 26.073 98.593,26.097 98.622,26.126 98.604 C 26.156 98.586,26.197 98.613,26.216 98.664 C 26.236 98.716,26.275 98.744,26.302 98.727 C 26.330 98.710,26.394 98.743,26.445 98.799 C 26.496 98.855,26.657 99.001,26.802 99.123 C 26.947 99.245,27.123 99.394,27.194 99.454 C 27.264 99.514,27.412 99.631,27.523 99.714 C 27.634 99.797,27.799 99.939,27.890 100.030 C 27.981 100.121,28.084 100.196,28.118 100.196 C 28.152 100.196,28.180 100.223,28.180 100.256 C 28.180 100.289,28.207 100.316,28.240 100.316 C 28.295 100.316,28.453 100.430,28.634 100.602 C 28.678 100.644,28.739 100.677,28.769 100.677 C 28.800 100.677,28.876 100.745,28.939 100.828 C 29.001 100.911,29.082 100.978,29.119 100.978 C 29.156 100.978,29.271 101.060,29.375 101.159 C 29.479 101.258,29.605 101.340,29.655 101.340 C 29.705 101.340,29.746 101.382,29.746 101.434 C 29.746 101.485,29.770 101.513,29.800 101.494 C 29.829 101.476,29.869 101.501,29.888 101.551 C 29.907 101.600,29.958 101.641,30.001 101.641 C 30.045 101.641,30.119 101.695,30.167 101.761 C 30.215 101.827,30.296 101.882,30.348 101.882 C 30.399 101.882,30.481 101.936,30.528 102.002 C 30.576 102.068,30.657 102.123,30.709 102.123 C 30.761 102.123,30.842 102.177,30.890 102.243 C 30.937 102.309,31.019 102.363,31.070 102.363 C 31.122 102.363,31.203 102.418,31.251 102.484 C 31.299 102.550,31.373 102.604,31.417 102.604 C 31.460 102.604,31.511 102.645,31.530 102.694 C 31.549 102.744,31.589 102.769,31.619 102.751 C 31.648 102.733,31.672 102.746,31.672 102.781 C 31.672 102.816,31.714 102.845,31.765 102.845 C 31.815 102.845,31.872 102.886,31.892 102.935 C 31.911 102.985,31.959 103.026,31.999 103.026 C 32.039 103.026,32.128 103.078,32.197 103.143 C 32.266 103.207,32.337 103.244,32.355 103.226 C 32.373 103.208,32.456 103.266,32.539 103.356 C 32.622 103.445,32.718 103.501,32.753 103.479 C 32.788 103.458,32.816 103.466,32.816 103.497 C 32.816 103.528,32.896 103.586,32.993 103.626 C 33.090 103.666,33.184 103.737,33.201 103.783 C 33.219 103.829,33.275 103.851,33.326 103.831 C 33.377 103.812,33.419 103.822,33.419 103.855 C 33.419 103.888,33.500 103.948,33.599 103.989 C 33.699 104.030,33.780 104.088,33.780 104.117 C 33.780 104.146,33.834 104.170,33.900 104.170 C 33.967 104.170,34.021 104.192,34.021 104.220 C 34.021 104.248,34.168 104.333,34.349 104.409 C 34.529 104.486,34.691 104.584,34.708 104.629 C 34.725 104.673,34.780 104.694,34.831 104.674 C 34.891 104.651,34.924 104.673,34.924 104.734 C 34.924 104.790,34.958 104.815,35.008 104.796 C 35.055 104.778,35.111 104.793,35.133 104.829 C 35.155 104.865,35.198 104.879,35.229 104.860 C 35.260 104.841,35.285 104.857,35.285 104.896 C 35.285 104.937,35.336 104.953,35.406 104.935 C 35.489 104.913,35.526 104.933,35.526 105.000 C 35.526 105.076,35.542 105.081,35.598 105.025 C 35.638 104.985,35.722 104.953,35.784 104.953 C 35.932 104.953,35.887 104.822,35.709 104.732 C 35.581 104.668,35.579 104.660,35.683 104.636 C 35.746 104.621,35.695 104.621,35.571 104.636 C 35.447 104.650,35.345 104.636,35.345 104.604 C 35.345 104.572,35.283 104.546,35.206 104.546 C 34.970 104.546,34.400 104.191,34.556 104.142 C 34.626 104.120,34.737 104.119,34.804 104.140 C 34.873 104.162,34.924 104.151,34.924 104.114 C 34.924 104.078,35.004 104.049,35.101 104.049 C 35.198 104.049,35.295 104.022,35.315 103.989 C 35.336 103.956,35.310 103.929,35.259 103.929 C 35.207 103.929,35.165 103.905,35.165 103.877 C 35.165 103.848,35.043 103.790,34.895 103.749 C 34.747 103.707,34.640 103.649,34.658 103.621 C 34.675 103.592,34.614 103.534,34.521 103.493 C 34.428 103.451,34.295 103.363,34.226 103.297 C 33.951 103.035,33.718 102.845,33.671 102.845 C 33.612 102.845,32.563 101.758,32.305 101.428 C 32.205 101.302,32.088 101.162,32.044 101.118 C 32.001 101.075,31.983 101.039,32.006 101.039 C 32.029 101.039,31.902 100.940,31.724 100.819 C 31.313 100.538,30.094 99.322,29.712 98.811 C 29.552 98.596,29.378 98.379,29.327 98.329 C 29.275 98.279,29.134 98.117,29.013 97.968 C 28.892 97.819,28.710 97.609,28.610 97.501 C 28.510 97.393,28.441 97.305,28.457 97.305 C 28.473 97.305,28.457 97.272,28.422 97.230 C 28.387 97.189,28.257 97.020,28.133 96.855 C 28.010 96.689,27.859 96.500,27.799 96.433 C 27.412 96.008,27.554 96.020,28.217 96.467 C 28.702 96.794,28.785 96.858,29.131 97.170 C 29.250 97.278,29.368 97.366,29.392 97.366 C 29.416 97.366,29.563 97.488,29.719 97.637 C 29.874 97.786,30.027 97.908,30.059 97.908 C 30.091 97.908,30.209 98.002,30.322 98.118 C 30.434 98.234,30.549 98.329,30.576 98.329 C 30.603 98.329,30.729 98.424,30.855 98.540 C 30.982 98.656,31.107 98.751,31.134 98.751 C 31.160 98.751,31.218 98.786,31.262 98.829 C 31.305 98.872,31.477 98.999,31.642 99.111 C 31.808 99.224,31.952 99.337,31.963 99.364 C 31.975 99.391,32.018 99.413,32.060 99.413 C 32.102 99.413,32.221 99.494,32.325 99.594 C 32.429 99.693,32.549 99.774,32.592 99.774 C 32.635 99.774,32.709 99.828,32.756 99.895 C 32.804 99.961,32.871 100.015,32.905 100.015 C 32.939 100.015,33.046 100.083,33.142 100.166 C 33.238 100.248,33.336 100.316,33.358 100.316 C 33.381 100.316,33.479 100.384,33.575 100.467 C 33.671 100.549,33.784 100.617,33.825 100.617 C 33.866 100.617,33.900 100.640,33.900 100.667 C 33.900 100.695,33.975 100.756,34.066 100.803 C 34.157 100.850,34.284 100.936,34.348 100.994 C 34.412 101.051,34.488 101.099,34.516 101.099 C 34.545 101.099,34.625 101.152,34.695 101.217 C 34.765 101.282,34.844 101.322,34.872 101.304 C 34.900 101.287,34.982 101.329,35.055 101.397 C 35.128 101.465,35.223 101.520,35.267 101.520 C 35.310 101.520,35.345 101.544,35.345 101.573 C 35.345 101.602,35.427 101.660,35.526 101.701 C 35.625 101.742,35.707 101.797,35.707 101.822 C 35.707 101.868,35.938 101.961,36.023 101.948 C 36.048 101.945,36.068 101.967,36.068 101.998 C 36.068 102.029,36.122 102.071,36.188 102.092 C 36.254 102.113,36.342 102.164,36.384 102.204 C 36.425 102.245,36.568 102.332,36.700 102.398 C 37.072 102.582,37.541 102.865,37.563 102.918 C 37.574 102.944,37.635 102.966,37.699 102.966 C 37.762 102.966,37.814 102.997,37.814 103.036 C 37.814 103.074,37.832 103.089,37.853 103.068 C 37.874 103.047,37.968 103.084,38.063 103.152 C 38.158 103.219,38.262 103.257,38.296 103.237 C 38.329 103.216,38.356 103.227,38.356 103.261 C 38.356 103.296,38.492 103.382,38.657 103.453 C 38.823 103.524,38.958 103.609,38.958 103.642 C 38.958 103.674,38.997 103.686,39.045 103.668 C 39.092 103.650,39.140 103.653,39.150 103.676 C 39.182 103.746,39.681 104.001,39.682 103.948 C 39.682 103.921,39.703 103.927,39.727 103.962 C 39.784 104.044,40.184 104.230,40.302 104.230 C 40.352 104.230,40.402 104.253,40.413 104.280 C 40.431 104.325,40.875 104.545,41.412 104.777 C 41.520 104.824,41.608 104.884,41.608 104.911 C 41.608 104.938,41.636 104.942,41.671 104.921 C 41.705 104.899,41.772 104.914,41.818 104.953 C 41.865 104.991,41.932 105.006,41.966 104.984 C 42.001 104.963,42.029 104.974,42.029 105.009 C 42.029 105.044,42.083 105.073,42.150 105.073 C 42.216 105.073,42.270 105.100,42.270 105.133 C 42.270 105.166,42.304 105.194,42.345 105.194 C 42.387 105.194,42.488 105.229,42.571 105.272 C 42.654 105.315,42.857 105.387,43.023 105.432 C 43.188 105.477,43.446 105.580,43.595 105.662 C 43.744 105.743,43.866 105.802,43.866 105.793 C 43.866 105.761,44.348 105.932,44.423 105.991 C 44.464 106.024,44.498 106.029,44.498 106.002 C 44.498 105.974,44.530 105.985,44.570 106.024 C 44.610 106.064,44.691 106.097,44.751 106.097 C 44.810 106.097,44.859 106.123,44.859 106.155 C 44.859 106.187,44.897 106.199,44.943 106.181 C 44.990 106.163,45.046 106.178,45.068 106.214 C 45.090 106.250,45.137 106.262,45.171 106.240 C 45.206 106.219,45.251 106.227,45.272 106.259 C 45.321 106.331,45.989 106.518,46.198 106.518 C 46.284 106.518,46.368 106.552,46.385 106.593 C 46.406 106.647,46.417 106.648,46.420 106.598 C 46.423 106.550,46.480 106.541,46.590 106.569 C 47.228 106.735,49.916 106.536,50.146 106.306 C 50.277 106.175,50.240 106.039,50.097 106.127 C 50.064 106.148,50.021 106.115,50.003 106.055 C 49.984 105.995,49.948 105.905,49.922 105.856 C 49.854 105.722,49.910 105.615,50.089 105.541 C 50.318 105.445,51.182 105.264,51.182 105.312 C 51.182 105.334,51.277 105.345,51.392 105.336 C 51.508 105.326,51.603 105.339,51.603 105.364 C 51.603 105.388,51.698 105.405,51.814 105.402 C 51.930 105.398,52.025 105.414,52.025 105.438 C 52.025 105.462,52.086 105.480,52.160 105.479 C 52.235 105.477,52.431 105.496,52.597 105.522 C 52.762 105.547,52.945 105.573,53.002 105.580 C 53.059 105.587,53.123 105.609,53.143 105.630 C 53.164 105.650,53.219 105.652,53.265 105.634 C 53.311 105.617,53.349 105.625,53.349 105.654 C 53.349 105.795,54.810 105.626,54.945 105.469 C 55.066 105.328,56.885 104.798,57.382 104.759 C 57.512 104.749,57.704 104.551,57.658 104.475 C 57.623 104.419,57.692 104.386,57.813 104.401 C 57.834 104.404,57.898 104.354,57.955 104.291 C 58.055 104.180,58.050 104.178,57.751 104.205 C 57.580 104.220,57.444 104.208,57.444 104.176 C 57.444 104.145,57.353 104.127,57.241 104.136 C 57.026 104.153,57.026 104.152,57.078 103.658 C 57.082 103.625,57.109 103.637,57.139 103.684 C 57.185 103.756,57.210 103.758,57.290 103.691 C 57.343 103.647,57.404 103.628,57.425 103.650 C 57.447 103.671,57.517 103.641,57.581 103.583 C 57.645 103.525,57.708 103.484,57.721 103.492 C 57.734 103.501,57.752 103.505,57.760 103.502 C 57.826 103.480,59.019 103.327,59.371 103.295 C 59.586 103.276,59.857 103.249,59.973 103.236 C 60.089 103.222,60.346 103.195,60.545 103.176 C 61.362 103.097,61.900 103.018,63.796 102.701 C 69.184 101.799,72.531 100.944,75.899 99.609 C 77.441 98.998,80.352 97.654,81.439 97.052 C 82.567 96.427,83.989 95.563,84.168 95.394 C 84.212 95.352,84.271 95.318,84.299 95.318 C 84.328 95.318,84.387 95.283,84.430 95.240 C 84.474 95.197,84.686 95.042,84.901 94.897 C 85.117 94.752,85.485 94.482,85.720 94.298 C 85.955 94.114,86.239 93.896,86.352 93.813 C 86.465 93.731,86.639 93.570,86.738 93.456 C 86.837 93.343,87.351 92.828,87.880 92.312 C 91.731 88.557,93.076 86.969,95.770 83.002 C 96.960 81.248,99.169 77.060,99.686 75.576 C 99.832 75.158,100.076 74.463,100.228 74.033 C 100.796 72.423,101.487 69.788,101.340 69.788 C 101.261 69.788,100.763 70.286,100.783 70.345 C 100.791 70.370,100.757 70.390,100.708 70.390 C 100.601 70.390,100.370 70.605,100.421 70.656 C 100.441 70.675,100.378 70.694,100.281 70.698 C 100.178 70.702,100.149 70.716,100.211 70.733 C 100.352 70.769,100.285 70.870,100.117 70.876 C 99.990 70.880,99.989 70.882,100.105 70.932 C 100.211 70.977,100.205 70.984,100.057 70.988 C 99.960 70.990,99.903 71.018,99.925 71.052 C 99.945 71.085,99.935 71.112,99.901 71.112 C 99.810 71.112,99.529 71.389,99.574 71.435 C 99.596 71.456,99.582 71.474,99.543 71.474 C 99.505 71.474,99.473 71.513,99.473 71.560 C 99.473 71.607,99.419 71.663,99.353 71.684 C 99.286 71.706,99.232 71.761,99.232 71.807 C 99.232 71.854,99.166 72.035,99.086 72.210 C 99.005 72.384,98.813 72.826,98.658 73.190 C 98.202 74.263,97.343 75.954,96.685 77.074 C 96.617 77.190,96.518 77.367,96.464 77.468 C 96.320 77.742,96.068 78.137,95.478 79.018 C 95.185 79.455,94.900 79.891,94.846 79.986 C 94.791 80.082,94.584 80.370,94.385 80.627 C 94.186 80.884,93.898 81.266,93.744 81.477 C 93.416 81.927,92.567 82.950,91.997 83.583 C 91.777 83.828,91.499 84.139,91.381 84.275 C 91.110 84.585,89.590 86.104,89.425 86.229 C 89.358 86.280,89.204 86.412,89.084 86.521 C 88.682 86.887,88.800 86.662,89.261 86.186 C 90.026 85.395,92.558 81.771,93.335 80.355 C 93.620 79.835,94.192 78.700,94.276 78.489 C 94.315 78.389,94.487 77.969,94.660 77.555 C 94.832 77.141,95.033 76.626,95.107 76.410 C 95.181 76.194,95.296 75.910,95.363 75.778 C 95.430 75.646,95.541 75.337,95.611 75.090 C 95.786 74.467,95.716 74.428,95.414 74.981 C 95.199 75.376,94.998 75.738,94.845 76.005 C 94.774 76.129,94.666 76.319,94.605 76.426 C 94.419 76.754,93.741 77.808,93.510 78.127 C 93.391 78.293,93.278 78.469,93.259 78.519 C 93.217 78.629,91.727 80.632,91.624 80.717 C 91.584 80.750,91.402 80.966,91.219 81.198 C 90.270 82.404,88.331 84.416,87.108 85.464 C 86.947 85.602,86.757 85.765,86.686 85.826 C 86.615 85.887,86.425 86.050,86.263 86.187 C 86.102 86.325,85.939 86.465,85.902 86.499 C 85.865 86.533,85.537 86.789,85.172 87.068 C 84.808 87.347,84.496 87.591,84.480 87.609 C 84.463 87.626,84.314 87.734,84.149 87.848 C 83.983 87.962,83.753 88.132,83.637 88.226 C 83.341 88.467,83.317 88.485,83.215 88.533 C 83.166 88.557,83.013 88.650,82.876 88.741 C 82.494 88.993,81.695 89.492,80.939 89.951 C 80.701 90.096,80.506 90.237,80.506 90.265 C 80.506 90.349,80.209 90.609,79.572 91.083 C 79.241 91.330,78.939 91.587,78.901 91.655 C 78.685 92.043,76.652 93.284,75.514 93.724 C 74.586 94.082,72.977 94.923,73.175 94.946 C 73.361 94.968,73.394 95.048,73.235 95.094 C 72.608 95.277,71.491 95.640,71.444 95.677 C 71.411 95.703,71.275 95.757,71.143 95.797 C 71.010 95.837,70.861 95.883,70.811 95.899 C 70.762 95.915,70.714 95.927,70.706 95.925 C 70.698 95.923,70.592 95.978,70.469 96.047 C 70.347 96.116,69.798 96.265,69.250 96.379 C 68.701 96.493,68.225 96.595,68.192 96.605 C 68.159 96.616,68.091 96.640,68.042 96.657 C 67.992 96.675,67.667 96.750,67.321 96.824 C 66.974 96.898,66.447 97.038,66.151 97.136 C 65.605 97.316,64.760 97.423,63.867 97.425 C 63.337 97.426,63.359 97.333,63.931 97.152 C 65.062 96.795,65.142 96.498,64.037 96.757 C 63.588 96.863,63.391 96.897,62.773 96.978 C 62.640 96.995,62.234 97.019,61.870 97.032 C 61.505 97.044,60.760 97.073,60.214 97.097 C 59.539 97.126,59.075 97.117,58.769 97.069 C 57.767 96.911,56.746 96.852,53.952 96.791 C 53.107 96.773,52.281 96.749,52.115 96.739 C 51.949 96.728,51.475 96.701,51.061 96.680 C 49.770 96.611,49.443 96.582,48.683 96.462 C 48.484 96.431,48.213 96.389,48.081 96.368 C 46.925 96.188,43.514 95.178,41.036 94.281 C 40.771 94.186,40.435 94.068,40.290 94.021 C 40.144 93.973,39.995 93.911,39.958 93.883 C 39.922 93.854,39.675 93.755,39.410 93.662 C 39.145 93.569,38.813 93.442,38.672 93.380 C 38.532 93.319,38.335 93.252,38.236 93.232 C 38.136 93.212,38.055 93.176,38.055 93.151 C 38.055 93.126,37.932 93.072,37.783 93.030 C 37.633 92.988,37.496 92.930,37.478 92.902 C 37.460 92.873,37.403 92.850,37.350 92.850 C 37.297 92.850,37.116 92.785,36.947 92.707 C 36.485 92.492,35.854 92.250,35.650 92.209 C 35.550 92.189,35.481 92.152,35.496 92.127 C 35.512 92.101,35.397 92.049,35.240 92.009 C 35.084 91.970,34.928 91.915,34.895 91.887 C 34.861 91.860,34.549 91.690,34.201 91.511 C 33.526 91.163,33.286 91.031,33.238 90.983 C 33.221 90.966,33.127 90.910,33.027 90.858 C 32.629 90.649,32.466 90.543,32.270 90.366 C 32.206 90.308,32.129 90.260,32.098 90.260 C 32.067 90.260,32.007 90.225,31.963 90.181 C 31.919 90.137,31.301 89.713,30.589 89.238 C 28.545 87.874,28.483 87.814,29.519 88.205 C 31.208 88.842,32.462 89.191,32.550 89.048 C 32.579 89.002,32.610 89.011,32.647 89.079 C 32.731 89.229,32.827 89.195,32.805 89.023 C 32.788 88.880,32.690 88.837,31.311 88.368 C 30.500 88.092,29.484 87.730,29.053 87.564 C 28.348 87.291,27.313 86.949,27.195 86.949 C 26.993 86.949,27.214 87.340,27.502 87.494 C 27.675 87.586,27.786 87.672,27.748 87.685 C 27.710 87.697,27.836 87.842,28.027 88.006 C 28.493 88.404,28.781 88.683,28.786 88.739 C 28.788 88.764,28.906 88.880,29.049 88.996 C 29.453 89.324,29.493 89.417,29.230 89.417 L 29.014 89.417 29.214 89.583 C 29.561 89.869,29.615 89.930,29.475 89.878 C 29.257 89.797,28.502 89.349,28.324 89.195 C 28.228 89.112,28.046 88.959,27.919 88.855 C 27.341 88.380,27.225 88.277,26.793 87.852 C 26.540 87.603,26.159 87.240,25.947 87.045 C 25.225 86.381,24.478 85.650,24.275 85.411 C 24.052 85.147,22.833 83.841,22.384 83.384 C 22.227 83.224,22.098 83.065,22.098 83.030 C 22.098 82.996,22.071 82.984,22.038 83.005 C 22.005 83.025,21.978 83.007,21.978 82.965 C 21.978 82.923,21.767 82.684,21.509 82.435 C 21.252 82.185,20.854 81.778,20.625 81.529 C 19.613 80.431,17.822 78.639,17.736 78.639 C 17.685 78.639,17.643 78.613,17.643 78.581 C 17.643 78.549,17.607 78.536,17.563 78.553 C 17.520 78.570,17.381 78.501,17.254 78.401 C 16.981 78.184,16.985 78.185,16.997 78.338 C 17.002 78.404,17.021 78.459,17.040 78.459 C 17.060 78.459,17.081 78.540,17.089 78.639 C 17.108 78.896,17.079 78.880,16.472 78.287 C 15.994 77.819,15.656 77.551,15.656 77.640 C 15.656 77.655,15.687 77.744,15.726 77.837 C 15.764 77.931,15.791 78.027,15.786 78.052 C 15.780 78.077,15.796 78.097,15.821 78.098 C 15.846 78.098,15.871 78.209,15.876 78.345 C 15.881 78.489,15.963 78.741,16.071 78.947 C 16.304 79.391,16.266 79.388,15.764 78.923 C 15.379 78.566,15.327 78.481,14.602 77.045 C 14.185 76.219,13.831 75.530,13.816 75.515 C 13.717 75.416,13.751 75.623,13.908 76.067 C 14.085 76.569,14.148 76.879,14.017 76.607 C 13.981 76.532,13.925 76.471,13.893 76.471 C 13.861 76.471,13.868 76.512,13.909 76.562 C 13.970 76.635,13.968 76.652,13.902 76.651 C 13.814 76.649,13.647 76.328,13.514 75.909 C 13.470 75.771,13.369 75.476,13.289 75.252 C 13.089 74.697,13.277 73.776,13.522 74.107 C 13.685 74.328,13.821 73.703,13.943 72.166 C 13.964 71.901,13.991 71.584,14.001 71.461 C 14.012 71.338,13.994 71.138,13.960 71.017 C 13.927 70.896,13.891 70.752,13.881 70.698 C 13.870 70.645,13.820 70.452,13.768 70.269 C 13.717 70.087,13.656 69.803,13.634 69.637 C 13.611 69.472,13.577 69.309,13.557 69.276 C 13.537 69.243,13.517 69.189,13.511 69.156 C 13.447 68.764,13.422 68.627,13.365 68.343 C 13.329 68.160,13.291 67.957,13.281 67.891 C 13.271 67.825,13.232 67.608,13.196 67.409 C 13.159 67.211,13.114 66.926,13.097 66.777 C 13.080 66.628,13.052 66.438,13.036 66.356 C 12.950 65.914,12.884 65.510,12.855 65.242 C 12.837 65.076,12.811 64.873,12.796 64.790 C 12.782 64.707,12.754 64.490,12.735 64.308 C 12.716 64.126,12.689 63.909,12.675 63.827 C 12.661 63.744,12.633 63.530,12.612 63.351 C 12.591 63.172,12.564 62.970,12.551 62.903 C 12.538 62.836,12.512 62.576,12.493 62.325 C 12.474 62.075,12.447 61.761,12.432 61.629 C 12.418 61.496,12.392 61.152,12.375 60.864 C 12.357 60.575,12.332 60.236,12.317 60.111 C 12.118 58.363,12.225 52.681,12.465 52.270 C 12.517 52.182,12.554 52.447,12.532 52.747 C 12.528 52.797,12.551 52.878,12.583 52.928 C 12.677 53.076,12.796 52.851,13.011 52.115 C 13.303 51.115,13.564 50.459,13.670 50.459 C 13.688 50.459,13.732 50.574,13.769 50.715 C 14.007 51.631,14.039 51.863,14.059 52.882 C 14.071 53.468,14.096 53.973,14.116 54.005 C 14.265 54.247,14.403 55.568,14.414 56.872 L 14.421 57.715 14.578 57.733 C 14.726 57.750,14.732 57.765,14.693 57.984 C 14.659 58.165,14.681 58.280,14.791 58.508 C 14.868 58.668,14.932 58.838,14.932 58.887 C 14.933 58.936,14.971 59.085,15.018 59.218 C 15.065 59.352,15.137 59.658,15.178 59.898 C 15.230 60.197,15.280 60.334,15.338 60.334 C 15.395 60.334,15.410 60.295,15.385 60.214 C 15.363 60.146,15.374 60.093,15.409 60.093 C 15.443 60.093,15.456 60.053,15.436 60.003 C 15.417 59.953,15.425 59.913,15.453 59.913 C 15.482 59.913,15.509 59.825,15.514 59.717 C 15.532 59.327,15.566 59.130,15.617 59.130 C 15.645 59.130,15.653 59.090,15.635 59.042 C 15.616 58.993,15.629 58.935,15.665 58.914 C 15.707 58.887,15.701 58.857,15.647 58.822 C 15.578 58.779,15.578 58.770,15.648 58.770 C 15.700 58.769,15.718 58.725,15.698 58.648 C 15.681 58.582,15.685 58.528,15.708 58.528 C 15.730 58.528,15.749 57.898,15.749 57.128 C 15.751 55.883,15.810 54.060,15.865 53.605 C 15.876 53.514,15.903 53.209,15.925 52.928 C 15.947 52.646,15.977 52.343,15.992 52.253 C 16.006 52.163,16.030 51.933,16.045 51.741 C 16.093 51.127,16.199 50.342,16.320 49.706 C 16.352 49.541,16.403 49.229,16.435 49.014 C 16.467 48.799,16.509 48.541,16.529 48.442 C 16.548 48.343,16.575 48.207,16.587 48.141 C 16.635 47.890,16.862 46.801,16.944 46.425 C 16.991 46.210,17.059 45.959,17.094 45.868 C 17.129 45.777,17.146 45.702,17.131 45.702 C 17.116 45.702,17.130 45.633,17.162 45.549 C 17.194 45.464,17.235 45.310,17.254 45.206 C 17.272 45.102,17.341 44.840,17.408 44.622 C 17.474 44.405,17.599 43.997,17.685 43.715 C 18.340 41.573,19.329 38.932,19.329 39.325 C 19.329 39.422,19.189 40.114,19.117 40.373 C 18.979 40.873,18.734 41.960,18.609 42.631 C 18.411 43.694,18.243 44.511,18.151 44.865 C 18.071 45.172,18.018 45.603,17.912 46.816 C 17.858 47.424,17.644 49.212,17.614 49.296 C 17.600 49.335,17.571 49.525,17.549 49.718 C 17.527 49.910,17.497 50.087,17.483 50.111 C 17.469 50.135,17.497 50.232,17.546 50.326 C 17.609 50.448,17.630 50.653,17.619 51.035 C 17.590 51.994,17.729 52.609,17.853 52.072 C 17.878 51.963,17.906 51.847,17.915 51.814 C 17.933 51.748,17.992 51.370,18.035 51.053 C 18.050 50.942,18.078 50.783,18.096 50.700 C 18.128 50.560,18.179 50.273,18.305 49.526 C 18.350 49.263,18.486 48.573,18.585 48.111 C 18.602 48.028,18.626 47.906,18.637 47.840 C 18.683 47.568,18.903 46.604,19.023 46.147 C 19.094 45.879,19.162 45.608,19.174 45.545 C 19.186 45.483,19.266 45.215,19.352 44.951 C 19.439 44.687,19.509 44.440,19.509 44.402 C 19.509 44.365,19.605 44.052,19.723 43.708 C 19.841 43.364,19.947 43.042,19.961 42.993 C 20.126 42.363,20.865 40.436,21.287 39.530 C 21.426 39.232,21.561 38.921,21.586 38.838 C 21.635 38.682,22.979 36.024,23.063 35.918 C 23.090 35.884,23.209 35.668,23.330 35.436 C 23.710 34.703,23.936 34.331,24.161 34.066 C 24.219 33.998,24.266 33.905,24.266 33.859 C 24.266 33.813,24.320 33.717,24.386 33.646 C 24.452 33.575,24.619 33.326,24.758 33.092 C 24.896 32.857,25.025 32.652,25.046 32.636 C 25.066 32.619,25.176 32.457,25.290 32.275 C 25.405 32.092,25.526 31.913,25.559 31.876 C 25.593 31.838,25.662 31.746,25.711 31.671 C 25.761 31.597,25.858 31.465,25.927 31.378 C 25.996 31.292,26.103 31.133,26.166 31.025 C 26.228 30.918,26.294 30.829,26.313 30.829 C 26.331 30.829,26.413 30.708,26.494 30.558 C 26.575 30.409,26.663 30.288,26.688 30.288 C 26.714 30.288,26.735 30.247,26.735 30.197 C 26.735 30.148,26.764 30.107,26.799 30.107 C 26.834 30.107,26.846 30.080,26.825 30.047 C 26.805 30.014,26.817 29.986,26.852 29.986 C 26.887 29.986,26.916 29.946,26.916 29.896 C 26.916 29.846,26.944 29.806,26.979 29.806 C 27.014 29.806,27.023 29.774,27.000 29.735 C 26.970 29.688,26.989 29.678,27.059 29.705 C 27.124 29.730,27.148 29.721,27.123 29.680 C 27.057 29.574,27.752 28.594,28.166 28.210 C 28.380 28.011,28.608 27.735,28.674 27.596 C 28.739 27.457,29.017 27.108,29.291 26.819 C 29.631 26.462,29.781 26.261,29.762 26.189 C 29.742 26.113,29.934 25.889,30.417 25.421 C 31.431 24.440,31.926 24.071,32.897 23.572 C 33.220 23.406,33.500 23.144,33.462 23.044 C 33.443 22.994,33.555 22.846,33.740 22.678 C 34.696 21.810,35.399 21.235,36.012 20.821 C 37.622 19.734,38.438 18.986,37.917 19.075 C 37.641 19.123,37.913 18.906,39.095 18.138 C 40.197 17.422,40.427 17.078,39.608 17.369 M58.967 17.847 C 58.941 17.893,58.865 17.945,58.799 17.963 C 58.722 17.984,58.742 17.991,58.854 17.985 C 58.969 17.977,59.034 17.938,59.044 17.868 C 59.062 17.742,59.033 17.733,58.967 17.847 M59.220 18.214 C 59.055 18.259,58.757 18.312,58.558 18.333 C 58.029 18.388,57.640 18.485,57.561 18.581 C 57.522 18.627,57.471 18.653,57.447 18.638 C 57.423 18.623,57.311 18.691,57.198 18.788 L 56.992 18.964 57.203 18.931 C 57.748 18.845,58.089 18.766,58.230 18.694 C 58.361 18.627,58.634 18.546,59.461 18.329 C 59.713 18.264,59.766 18.254,59.901 18.249 C 59.978 18.247,60.023 18.218,60.003 18.185 C 59.952 18.102,59.583 18.116,59.220 18.214 M66.928 19.366 C 66.828 19.377,66.401 19.418,65.979 19.457 C 65.414 19.510,65.212 19.550,65.212 19.609 C 65.212 19.660,65.283 19.690,65.407 19.689 C 65.515 19.688,65.972 19.720,66.424 19.760 C 67.169 19.826,67.260 19.823,67.401 19.731 C 67.486 19.675,67.601 19.630,67.656 19.630 C 67.711 19.630,67.863 19.598,67.993 19.559 C 68.494 19.409,67.757 19.276,66.928 19.366 M87.511 19.473 C 87.705 19.551,87.827 19.628,87.782 19.644 C 87.738 19.659,87.789 19.692,87.897 19.716 C 88.005 19.740,88.093 19.789,88.093 19.825 C 88.093 19.861,88.109 19.875,88.128 19.855 C 88.306 19.677,93.216 22.742,93.382 23.135 C 93.393 23.161,93.426 23.182,93.456 23.182 C 93.486 23.182,93.567 23.230,93.637 23.288 C 94.056 23.638,94.081 23.664,93.993 23.664 C 93.943 23.664,93.672 23.510,93.391 23.321 C 92.842 22.953,91.658 22.219,91.613 22.219 C 91.557 22.219,90.711 21.658,90.692 21.609 C 90.681 21.580,90.640 21.556,90.602 21.556 C 90.563 21.556,90.369 21.448,90.170 21.316 C 89.971 21.183,89.775 21.075,89.734 21.075 C 89.692 21.075,89.658 21.052,89.658 21.024 C 89.658 20.996,89.557 20.922,89.434 20.858 C 89.311 20.795,89.157 20.696,89.092 20.638 C 89.026 20.580,88.951 20.533,88.924 20.533 C 88.897 20.533,88.876 20.492,88.876 20.443 C 88.876 20.393,88.845 20.352,88.807 20.352 C 88.770 20.352,88.695 20.302,88.642 20.240 C 88.588 20.179,88.477 20.107,88.394 20.081 C 88.311 20.055,88.162 19.973,88.063 19.899 C 87.963 19.825,87.821 19.746,87.747 19.723 C 87.672 19.700,87.611 19.654,87.611 19.619 C 87.611 19.585,87.570 19.572,87.521 19.591 C 87.471 19.610,87.430 19.603,87.430 19.574 C 87.430 19.546,87.363 19.505,87.280 19.485 C 87.197 19.464,87.129 19.420,87.129 19.388 C 87.129 19.312,87.103 19.306,87.511 19.473 M73.401 21.098 C 73.401 21.175,73.690 21.275,73.987 21.300 C 74.336 21.330,74.538 21.285,74.449 21.197 C 74.389 21.139,73.401 21.045,73.401 21.098 M101.340 24.446 C 101.340 24.463,101.411 24.558,101.497 24.658 C 102.008 25.245,102.112 25.576,101.637 25.104 C 101.201 24.671,101.027 24.443,101.063 24.350 C 101.095 24.267,101.340 24.352,101.340 24.446 M102.767 26.414 C 102.837 26.508,102.994 26.716,103.116 26.877 C 103.259 27.067,103.316 27.191,103.278 27.229 C 103.212 27.296,102.953 27.106,103.002 27.026 C 103.018 26.999,102.985 26.995,102.928 27.017 C 102.848 27.048,102.833 27.033,102.863 26.956 C 102.889 26.889,102.871 26.855,102.810 26.855 C 102.759 26.855,102.734 26.829,102.753 26.797 C 102.773 26.766,102.680 26.624,102.546 26.482 C 102.250 26.167,102.200 25.931,102.471 26.124 C 102.563 26.189,102.696 26.320,102.767 26.414 M208.490 28.061 C 201.528 28.758,196.695 33.266,195.471 40.203 C 195.340 40.949,195.268 78.018,195.395 79.572 C 196.053 87.625,201.680 92.564,210.206 92.573 C 217.516 92.581,223.596 87.163,224.660 79.693 C 224.698 79.426,224.743 78.038,224.760 76.577 L 224.791 73.942 220.238 73.942 L 215.686 73.942 215.684 75.463 C 215.679 78.615,215.479 79.736,214.686 81.054 C 213.542 82.955,211.057 83.864,208.386 83.360 C 206.352 82.976,205.168 81.618,204.588 79.003 L 204.460 78.428 204.440 61.057 C 204.419 42.956,204.418 42.981,204.674 41.698 C 205.267 38.717,206.523 37.428,209.104 37.147 C 211.769 36.858,213.713 37.905,214.898 40.270 C 215.490 41.452,215.628 42.254,215.669 44.754 L 215.702 46.726 220.248 46.726 L 224.793 46.726 224.760 44.182 C 224.737 42.345,224.701 41.445,224.632 40.945 C 223.466 32.499,216.856 27.224,208.490 28.061 M370.977 28.065 C 363.209 28.808,357.743 34.503,357.246 42.370 C 357.127 44.251,357.201 78.556,357.326 79.482 C 358.130 85.444,361.893 89.985,367.545 91.813 C 376.626 94.750,386.157 89.177,387.502 80.145 C 387.706 78.775,387.716 78.166,387.716 67.635 L 387.716 57.083 379.557 57.083 L 371.398 57.083 371.398 61.117 L 371.398 65.151 375.011 65.151 L 378.624 65.151 378.624 71.430 C 378.624 77.884,378.612 78.276,378.377 79.229 C 377.003 84.802,368.205 84.981,366.617 79.469 C 366.297 78.358,366.310 79.181,366.310 60.304 C 366.310 41.430,366.297 42.251,366.617 41.139 C 367.796 37.033,373.575 35.696,376.881 38.765 C 378.247 40.033,378.566 41.091,378.608 44.483 L 378.635 46.726 383.182 46.726 L 387.728 46.726 387.700 44.182 C 387.647 39.333,386.872 36.733,384.563 33.660 C 381.700 29.849,376.163 27.569,370.977 28.065 M103.687 28.221 C 103.689 28.145,104.225 28.536,104.404 28.744 C 104.457 28.805,104.529 28.887,104.564 28.924 C 104.599 28.962,104.719 29.128,104.831 29.294 C 104.943 29.460,105.052 29.609,105.073 29.625 C 105.146 29.683,105.388 30.234,105.354 30.267 C 105.336 30.286,105.249 30.223,105.162 30.129 C 105.074 30.034,104.861 29.807,104.688 29.625 C 104.515 29.443,104.281 29.159,104.169 28.994 C 103.974 28.709,103.808 28.498,103.643 28.327 C 103.602 28.284,103.568 28.213,103.569 28.169 C 103.569 28.111,103.585 28.113,103.628 28.180 C 103.660 28.230,103.687 28.248,103.687 28.221 M9.525 28.305 C 9.481 28.375,9.459 28.446,9.476 28.463 C 9.493 28.480,9.454 28.550,9.390 28.619 C 9.325 28.688,9.273 28.780,9.273 28.824 C 9.273 28.867,9.246 28.903,9.213 28.903 C 9.180 28.903,9.152 28.955,9.152 29.019 C 9.152 29.083,9.119 29.171,9.077 29.214 C 9.036 29.258,9.005 29.369,9.008 29.460 C 9.011 29.551,8.989 29.625,8.959 29.625 C 8.929 29.625,8.922 29.653,8.942 29.686 C 8.963 29.720,9.005 29.732,9.036 29.713 C 9.066 29.695,9.075 29.721,9.055 29.773 C 9.035 29.824,9.048 29.866,9.084 29.866 C 9.154 29.866,9.139 29.996,8.993 30.649 C 8.945 30.864,8.895 31.094,8.881 31.161 C 8.844 31.345,9.130 31.465,9.230 31.307 C 9.269 31.243,9.332 31.191,9.368 31.191 C 9.512 31.191,9.651 30.931,9.997 30.018 C 10.406 28.937,10.413 28.903,10.206 28.903 C 10.107 28.903,10.056 28.869,10.056 28.804 C 10.056 28.750,10.004 28.661,9.941 28.607 C 9.878 28.552,9.817 28.441,9.806 28.359 C 9.779 28.170,9.627 28.140,9.525 28.305 M130.965 60.304 L 130.965 92.067 135.511 92.067 L 140.057 92.067 140.057 78.519 L 140.057 64.971 147.915 64.971 L 155.773 64.971 155.773 60.665 L 155.773 56.360 147.915 56.360 L 140.057 56.360 140.057 46.726 L 140.057 37.092 149.089 37.092 L 158.121 37.092 158.121 32.816 L 158.121 28.541 144.543 28.541 L 130.965 28.541 130.965 60.304 M169.369 29.550 C 169.246 30.105,168.577 33.106,167.882 36.219 C 167.187 39.332,164.110 53.124,161.043 66.867 C 157.977 80.611,155.453 91.904,155.436 91.962 C 155.405 92.062,155.638 92.067,159.966 92.052 L 164.528 92.037 165.838 85.353 C 166.559 81.677,167.164 78.608,167.182 78.534 L 167.216 78.398 173.417 78.398 C 176.827 78.398,179.618 78.420,179.618 78.447 C 179.618 78.474,180.214 81.535,180.942 85.249 C 181.671 88.963,182.267 92.016,182.267 92.034 C 182.267 92.052,184.313 92.067,186.813 92.067 C 189.314 92.067,191.359 92.055,191.359 92.041 C 191.359 92.026,188.176 77.746,184.284 60.307 C 180.393 42.868,177.209 28.587,177.209 28.571 C 177.209 28.555,175.495 28.541,173.400 28.541 L 169.592 28.541 169.369 29.550 M232.184 60.304 L 232.184 92.067 245.732 92.067 L 259.280 92.067 259.280 87.521 L 259.280 82.975 250.278 82.975 L 241.277 82.975 241.277 73.641 L 241.277 64.308 249.134 64.308 L 256.992 64.308 256.992 60.033 L 256.992 55.758 249.134 55.758 L 241.277 55.758 241.277 46.425 L 241.277 37.092 250.278 37.092 L 259.280 37.092 259.280 32.816 L 259.280 28.541 245.732 28.541 L 232.184 28.541 232.184 60.304 M281.800 60.301 L 281.800 92.067 286.347 92.067 L 290.893 92.067 290.893 79.663 L 290.893 67.259 293.738 67.259 C 298.209 67.258,300.225 67.009,302.273 66.203 C 306.769 64.435,310.038 60.124,310.881 54.855 C 311.542 50.719,311.442 43.582,310.671 39.845 C 309.515 34.238,305.632 30.205,300.250 29.018 C 298.213 28.569,298.501 28.582,289.703 28.558 L 281.800 28.536 281.800 60.301 M317.748 60.304 L 317.748 92.067 322.294 92.067 L 326.840 92.067 326.840 72.979 C 326.840 54.840,326.846 53.891,326.946 53.892 C 327.030 53.893,327.434 54.947,329.016 59.296 C 330.097 62.268,333.224 70.857,335.966 78.383 L 340.950 92.067 345.246 92.067 L 349.541 92.067 349.541 60.304 L 349.541 28.541 344.995 28.541 L 340.449 28.541 340.434 47.674 C 340.420 64.510,340.408 66.807,340.329 66.807 C 340.266 66.807,338.308 61.421,333.375 47.674 L 326.509 28.542 322.129 28.542 L 317.748 28.541 317.748 60.304 M106.757 32.632 C 106.756 32.706,106.736 32.701,106.666 32.606 C 106.616 32.540,106.536 32.438,106.487 32.379 C 106.331 32.194,106.391 32.185,106.578 32.365 C 106.678 32.460,106.758 32.580,106.757 32.632 M107.296 33.112 C 107.292 33.193,107.286 33.194,107.258 33.118 C 107.240 33.068,107.181 32.973,107.127 32.907 C 107.031 32.787,107.031 32.787,107.165 32.901 C 107.240 32.964,107.299 33.059,107.296 33.112 M297.763 37.257 C 300.516 37.774,302.017 39.406,302.538 42.451 C 302.850 44.271,302.811 51.694,302.480 53.530 C 302.026 56.051,300.662 57.677,298.469 58.310 C 297.376 58.626,296.927 58.663,293.798 58.692 L 290.893 58.720 290.893 47.900 L 290.893 37.081 294.009 37.109 C 296.789 37.134,297.194 37.150,297.763 37.257 M5.058 38.657 C 5.058 38.723,5.032 38.778,5.000 38.778 C 4.968 38.778,4.957 38.818,4.976 38.868 C 4.995 38.918,4.978 38.958,4.938 38.958 C 4.897 38.958,4.879 38.996,4.896 39.041 C 4.914 39.087,4.906 39.148,4.879 39.177 C 4.853 39.206,4.741 39.554,4.631 39.952 C 4.521 40.349,4.417 40.688,4.399 40.705 C 4.380 40.721,4.365 40.762,4.365 40.795 C 4.365 40.914,4.130 41.788,4.098 41.788 C 4.079 41.789,4.058 41.876,4.051 41.984 C 4.043 42.091,4.009 42.188,3.975 42.200 C 3.941 42.211,3.926 42.240,3.941 42.265 C 3.956 42.290,3.930 42.455,3.884 42.631 C 3.837 42.808,3.813 42.975,3.830 43.003 C 3.847 43.030,3.829 43.053,3.790 43.053 C 3.749 43.053,3.732 43.103,3.751 43.173 C 3.768 43.240,3.763 43.294,3.739 43.294 C 3.668 43.294,3.697 43.739,3.774 43.821 C 3.859 43.911,4.031 43.920,4.042 43.836 C 4.046 43.802,4.054 43.755,4.060 43.730 C 4.067 43.705,4.092 43.573,4.117 43.437 C 4.150 43.256,4.203 43.171,4.312 43.121 C 4.507 43.032,4.519 43.034,4.474 43.152 C 4.413 43.312,4.758 43.201,4.933 43.005 C 5.013 42.916,5.111 42.849,5.151 42.858 C 5.308 42.893,5.646 41.362,5.752 40.135 C 5.772 39.905,5.800 39.698,5.814 39.675 C 5.828 39.652,5.776 39.617,5.697 39.598 C 5.545 39.559,5.482 39.413,5.480 39.094 C 5.480 38.986,5.453 38.898,5.421 38.898 C 5.389 38.898,5.320 38.817,5.269 38.717 C 5.162 38.510,5.058 38.481,5.058 38.657 M108.686 44.137 C 108.686 44.170,108.713 44.197,108.746 44.197 C 108.779 44.197,108.806 44.251,108.806 44.317 C 108.806 44.384,108.827 44.438,108.851 44.438 C 108.916 44.439,109.050 44.746,109.012 44.807 C 108.994 44.836,109.011 44.859,109.049 44.859 C 109.086 44.859,109.106 44.893,109.092 44.935 C 109.078 44.976,109.116 45.099,109.177 45.207 C 109.238 45.316,109.288 45.445,109.288 45.493 C 109.288 45.542,109.315 45.582,109.348 45.582 C 109.381 45.582,109.408 45.636,109.408 45.702 C 109.408 45.768,109.429 45.823,109.454 45.823 C 109.508 45.824,109.649 46.115,109.649 46.226 C 109.649 46.269,109.676 46.304,109.709 46.304 C 109.743 46.304,109.770 46.331,109.770 46.363 C 109.770 46.395,109.843 46.578,109.932 46.769 C 110.021 46.961,110.099 47.146,110.105 47.180 C 110.111 47.215,110.171 47.364,110.237 47.511 C 110.303 47.659,110.377 47.843,110.401 47.921 C 110.433 48.027,110.461 48.045,110.513 47.994 C 110.564 47.942,110.559 47.911,110.492 47.868 C 110.421 47.824,110.419 47.811,110.485 47.811 C 110.545 47.810,110.550 47.789,110.503 47.733 C 110.443 47.660,110.355 47.176,110.361 46.952 C 110.363 46.894,110.343 46.846,110.317 46.846 C 110.291 46.846,110.264 46.758,110.256 46.651 C 110.248 46.543,110.238 46.407,110.234 46.350 C 110.229 46.292,110.203 46.244,110.176 46.244 C 110.148 46.244,110.132 46.210,110.139 46.169 C 110.162 46.048,109.978 45.682,109.830 45.552 C 109.755 45.485,109.553 45.215,109.381 44.950 C 109.209 44.685,109.029 44.427,108.979 44.378 C 108.930 44.328,108.872 44.240,108.850 44.182 C 108.807 44.069,108.686 44.036,108.686 44.137 M175.631 58.121 C 176.832 64.323,177.831 69.498,177.851 69.622 L 177.887 69.848 173.363 69.848 C 169.351 69.848,168.839 69.838,168.839 69.756 C 168.839 69.706,169.828 64.559,171.037 58.318 C 172.246 52.078,173.235 46.944,173.235 46.909 C 173.235 46.875,173.283 46.846,173.342 46.846 C 173.436 46.846,173.709 48.191,175.631 58.121 M111.005 56.186 C 111.012 56.383,111.052 56.523,111.121 56.590 C 111.236 56.700,111.236 56.723,111.120 56.120 C 111.062 55.823,110.993 55.862,111.005 56.186 M12.973 57.971 C 13.049 58.424,13.079 58.528,13.141 58.567 C 13.184 58.593,13.193 58.572,13.169 58.508 C 13.146 58.448,13.160 58.407,13.204 58.406 C 13.258 58.406,13.257 58.393,13.200 58.356 C 13.157 58.329,13.140 58.262,13.161 58.207 C 13.184 58.148,13.170 58.106,13.129 58.106 C 13.091 58.106,13.074 58.083,13.091 58.055 C 13.108 58.027,13.082 57.952,13.032 57.889 C 12.946 57.783,12.942 57.788,12.973 57.971 M13.642 66.470 C 13.612 66.519,13.625 66.570,13.676 66.602 C 13.722 66.631,13.729 66.655,13.692 66.656 C 13.653 66.656,13.637 66.720,13.654 66.807 C 13.670 66.890,13.701 66.958,13.723 66.958 C 13.745 66.958,13.766 67.005,13.769 67.063 C 13.777 67.201,13.821 67.452,13.909 67.861 C 13.949 68.043,13.992 68.271,14.005 68.367 C 14.019 68.463,14.104 68.635,14.195 68.749 C 14.389 68.992,15.111 70.012,15.336 70.360 C 15.609 70.784,15.669 70.726,15.436 70.263 C 15.346 70.084,15.280 69.928,15.289 69.915 C 15.297 69.902,15.278 69.875,15.245 69.855 C 15.212 69.834,15.172 69.737,15.156 69.637 C 15.131 69.488,14.746 68.684,14.464 68.192 C 14.426 68.126,14.339 67.936,14.271 67.771 C 14.202 67.605,14.120 67.422,14.088 67.365 C 14.056 67.307,14.030 67.226,14.030 67.184 C 14.029 67.014,13.691 66.391,13.642 66.470 M120.250 70.480 C 120.246 70.571,120.232 70.581,120.193 70.519 C 120.159 70.464,120.128 70.531,120.099 70.725 C 120.075 70.882,120.027 71.081,119.991 71.167 C 119.956 71.253,119.932 71.347,119.939 71.376 C 119.945 71.405,119.907 71.411,119.853 71.391 C 119.799 71.370,119.710 71.353,119.655 71.352 C 119.568 71.352,119.567 71.344,119.645 71.293 C 119.716 71.247,119.702 71.235,119.581 71.234 C 119.487 71.233,119.358 71.304,119.253 71.414 C 119.158 71.513,119.044 71.594,119.000 71.594 C 118.870 71.594,118.766 71.992,118.537 73.370 C 118.352 74.478,118.346 74.772,118.505 74.910 C 118.601 74.993,118.657 75.123,118.681 75.315 C 118.699 75.471,118.743 75.593,118.778 75.587 C 118.812 75.581,118.874 75.669,118.915 75.783 C 118.956 75.897,119.017 75.990,119.050 75.990 C 119.083 75.990,119.095 75.965,119.076 75.935 C 119.057 75.904,119.070 75.870,119.104 75.859 C 119.138 75.848,119.172 75.751,119.179 75.643 C 119.187 75.536,119.210 75.448,119.231 75.448 C 119.252 75.448,119.283 75.387,119.299 75.312 C 119.316 75.238,119.440 74.826,119.574 74.398 C 119.709 73.970,119.805 73.597,119.788 73.570 C 119.772 73.543,119.789 73.521,119.826 73.521 C 119.866 73.521,119.878 73.472,119.855 73.401 C 119.831 73.325,119.845 73.280,119.892 73.280 C 119.932 73.280,119.951 73.265,119.932 73.247 C 119.903 73.218,120.036 72.690,120.241 72.022 C 120.275 71.910,120.289 71.795,120.272 71.766 C 120.254 71.738,120.270 71.715,120.308 71.715 C 120.348 71.715,120.360 71.666,120.337 71.594 C 120.316 71.528,120.322 71.474,120.350 71.474 C 120.379 71.474,120.403 71.426,120.405 71.368 C 120.407 71.310,120.424 71.173,120.444 71.063 C 120.467 70.931,120.440 70.775,120.367 70.611 C 120.293 70.445,120.254 70.401,120.250 70.480 M29.273 80.953 C 29.098 81.147,29.067 81.356,29.208 81.393 C 29.273 81.410,29.342 81.488,29.361 81.567 C 29.381 81.646,29.422 81.710,29.451 81.710 C 29.481 81.710,29.505 81.752,29.505 81.803 C 29.505 82.102,29.899 82.257,32.395 82.943 C 33.074 83.130,33.826 83.349,34.066 83.430 C 34.609 83.612,34.612 83.612,34.661 83.415 C 34.683 83.326,34.738 83.184,34.782 83.099 C 35.136 82.422,35.147 82.427,31.582 81.407 C 29.510 80.813,29.416 80.795,29.273 80.953 M264.639 87.521 L 264.639 92.067 269.186 92.067 L 273.732 92.067 273.732 87.521 L 273.732 82.975 269.186 82.975 L 264.639 82.975 264.639 87.521 M114.950 83.122 C 114.908 83.174,114.846 83.215,114.814 83.215 C 114.703 83.215,114.497 83.540,114.339 83.965 C 113.717 85.639,113.734 85.561,113.978 85.580 C 114.066 85.586,114.105 85.630,114.105 85.723 C 114.105 85.801,114.152 85.872,114.219 85.893 C 114.290 85.915,114.348 86.009,114.372 86.138 C 114.394 86.253,114.426 86.347,114.443 86.347 C 114.508 86.347,114.640 86.179,114.604 86.143 C 114.583 86.122,114.598 86.106,114.637 86.106 C 114.676 86.106,114.707 86.065,114.707 86.015 C 114.707 85.966,114.736 85.925,114.771 85.925 C 114.806 85.925,114.819 85.899,114.799 85.868 C 114.780 85.836,114.812 85.754,114.871 85.685 C 114.930 85.616,114.981 85.540,114.984 85.517 C 115.001 85.397,115.146 85.082,115.184 85.082 C 115.209 85.082,115.217 85.003,115.202 84.906 C 115.181 84.760,115.200 84.726,115.318 84.704 C 115.412 84.686,115.381 84.674,115.230 84.669 C 115.041 84.662,115.006 84.642,115.033 84.555 C 115.069 84.442,115.224 83.612,115.271 83.291 C 115.286 83.183,115.276 83.095,115.249 83.095 C 115.221 83.095,115.160 83.080,115.113 83.062 C 115.066 83.044,114.993 83.071,114.950 83.122 M20.010 85.493 C 20.676 86.358,20.654 86.321,20.432 86.206 C 19.987 85.976,19.028 84.770,19.028 84.440 C 19.028 84.346,19.594 84.952,20.010 85.493 M28.588 84.847 C 28.459 85.022,28.434 85.031,28.165 84.995 C 27.947 84.966,27.879 84.977,27.879 85.038 C 27.879 85.224,28.060 85.342,28.545 85.473 C 30.699 86.056,31.579 86.316,32.947 86.774 C 33.579 86.986,33.521 86.987,33.570 86.764 C 33.592 86.662,33.647 86.508,33.693 86.421 C 33.828 86.160,33.244 85.932,30.181 85.048 C 28.612 84.595,28.760 84.613,28.588 84.847 M20.924 87.250 C 20.904 87.283,20.917 87.310,20.954 87.310 C 21.068 87.310,21.325 87.607,21.279 87.687 C 21.256 87.728,21.256 87.744,21.280 87.722 C 21.351 87.659,21.858 88.206,21.858 88.347 C 21.858 88.434,21.708 88.365,21.568 88.213 C 21.310 87.933,20.841 87.262,20.878 87.226 C 20.935 87.168,20.965 87.184,20.924 87.250 M22.573 89.402 C 22.964 89.797,23.194 90.126,23.112 90.176 C 23.035 90.224,22.511 89.683,22.317 89.355 C 22.169 89.103,22.301 89.128,22.573 89.402 M30.167 90.742 C 30.167 90.775,30.208 90.802,30.257 90.802 C 30.307 90.802,30.348 90.829,30.348 90.863 C 30.348 90.896,30.388 90.923,30.438 90.923 C 30.488 90.923,30.528 90.945,30.528 90.973 C 30.528 91.000,30.603 91.061,30.694 91.108 C 30.785 91.155,30.873 91.207,30.890 91.224 C 30.949 91.284,31.611 91.706,31.646 91.706 C 31.665 91.706,31.799 91.787,31.943 91.886 C 32.088 91.986,32.221 92.067,32.239 92.067 C 32.257 92.067,32.420 92.162,32.602 92.278 C 32.783 92.393,32.960 92.488,32.994 92.488 C 33.029 92.488,33.057 92.515,33.057 92.549 C 33.057 92.582,33.093 92.609,33.136 92.609 C 33.180 92.609,33.273 92.663,33.345 92.729 C 33.416 92.795,33.487 92.850,33.504 92.850 C 33.531 92.850,33.892 93.077,34.053 93.195 C 34.201 93.303,34.484 93.465,34.638 93.529 C 34.729 93.567,34.804 93.620,34.804 93.646 C 34.804 93.671,34.844 93.693,34.894 93.693 C 34.944 93.693,34.984 93.720,34.984 93.753 C 34.984 93.786,35.026 93.813,35.078 93.813 C 35.130 93.813,35.155 93.840,35.135 93.873 C 35.114 93.906,35.134 93.933,35.178 93.933 C 35.222 93.933,35.301 93.981,35.354 94.039 C 35.543 94.248,35.994 94.539,36.324 94.665 C 36.415 94.700,36.490 94.754,36.490 94.786 C 36.490 94.818,36.513 94.830,36.541 94.812 C 36.569 94.795,36.697 94.834,36.825 94.899 C 36.952 94.964,37.031 95.019,36.999 95.022 C 36.967 95.024,36.995 95.049,37.062 95.078 L 37.182 95.129 37.062 95.133 C 36.956 95.137,36.388 94.886,36.128 94.722 C 36.079 94.690,35.734 94.514,35.361 94.330 C 34.185 93.748,31.379 91.934,30.794 91.377 C 30.758 91.342,30.638 91.246,30.527 91.164 C 30.156 90.885,29.979 90.682,30.107 90.682 C 30.140 90.682,30.167 90.709,30.167 90.742 M49.676 93.212 C 49.627 93.243,49.613 93.272,49.646 93.275 C 49.679 93.278,49.761 93.288,49.827 93.297 C 49.893 93.305,50.123 93.331,50.339 93.355 L 50.730 93.397 50.596 93.280 C 50.448 93.152,49.842 93.107,49.676 93.212 M96.839 94.337 C 96.764 94.352,96.703 94.389,96.703 94.419 C 96.703 94.450,96.668 94.475,96.625 94.475 C 96.516 94.475,96.223 94.617,96.222 94.669 C 96.222 94.693,96.181 94.697,96.132 94.678 C 96.081 94.659,96.026 94.684,96.006 94.736 C 95.987 94.787,95.936 94.816,95.893 94.799 C 95.851 94.783,95.798 94.815,95.777 94.870 C 95.754 94.931,95.702 94.955,95.642 94.933 C 95.572 94.906,95.556 94.921,95.582 94.990 C 95.611 95.066,95.591 95.077,95.484 95.043 C 95.364 95.005,95.359 95.011,95.432 95.099 C 95.503 95.186,95.498 95.198,95.386 95.198 C 95.309 95.198,95.258 95.236,95.258 95.295 C 95.258 95.356,95.225 95.379,95.168 95.357 C 95.113 95.336,95.078 95.357,95.078 95.409 C 95.078 95.463,95.042 95.482,94.981 95.458 C 94.928 95.438,94.867 95.447,94.846 95.478 C 94.794 95.553,94.340 95.769,94.273 95.750 C 94.245 95.742,94.191 95.760,94.153 95.789 C 94.115 95.818,93.941 95.893,93.766 95.954 C 93.590 96.016,93.401 96.108,93.344 96.160 C 93.205 96.286,92.488 96.883,92.281 97.044 C 91.993 97.269,92.223 97.327,93.342 97.313 C 93.532 97.311,94.183 96.993,94.832 96.586 C 95.084 96.428,95.400 96.243,95.533 96.175 C 96.064 95.904,97.096 95.067,96.786 95.158 C 96.169 95.340,96.114 95.274,96.543 94.869 C 96.793 94.632,97.092 94.255,96.991 94.303 C 96.982 94.307,96.913 94.323,96.839 94.337 M56.833 94.718 C 56.778 94.750,56.589 94.813,56.414 94.858 C 56.068 94.946,55.977 95.042,56.186 95.097 C 56.528 95.186,58.770 94.985,58.811 94.862 C 58.851 94.739,57.025 94.606,56.833 94.718 M66.416 95.625 C 66.267 95.654,66.064 95.718,65.964 95.768 C 65.762 95.869,65.270 96.009,65.189 95.989 C 65.160 95.982,65.085 96.022,65.023 96.078 C 64.945 96.149,64.910 96.157,64.910 96.103 C 64.910 96.042,64.892 96.041,64.821 96.101 C 64.772 96.141,64.691 96.159,64.642 96.141 C 64.593 96.122,64.537 96.132,64.517 96.164 C 64.498 96.196,64.429 96.222,64.365 96.222 C 64.301 96.222,64.248 96.249,64.248 96.282 C 64.248 96.367,64.468 96.357,64.861 96.254 C 65.047 96.206,65.371 96.150,65.582 96.131 C 66.026 96.090,66.465 95.987,66.511 95.912 C 66.529 95.884,66.584 95.860,66.633 95.860 C 66.682 95.860,66.795 95.793,66.884 95.710 L 67.047 95.559 66.867 95.566 C 66.768 95.569,66.565 95.596,66.416 95.625 M86.256 101.731 C 85.002 101.809,84.781 101.842,84.555 101.988 C 84.481 102.037,84.419 102.053,84.419 102.024 C 84.418 101.995,84.398 101.999,84.374 102.032 C 84.349 102.065,84.277 102.121,84.213 102.157 C 84.148 102.192,84.084 102.257,84.069 102.301 C 84.055 102.344,84.067 102.366,84.096 102.348 C 84.149 102.316,84.532 102.372,84.871 102.460 C 85.299 102.571,85.761 102.516,86.587 102.253 C 87.732 101.888,87.912 101.816,87.912 101.723 C 87.912 101.628,87.934 101.628,86.256 101.731 M56.681 103.774 C 56.699 103.821,56.670 103.896,56.616 103.940 C 56.536 104.005,56.526 104.005,56.565 103.940 C 56.632 103.830,56.174 103.911,56.082 104.026 C 55.989 104.142,55.934 104.130,55.983 104.004 C 56.021 103.905,56.014 103.905,55.860 104.006 C 55.750 104.078,55.698 104.089,55.698 104.039 C 55.698 103.981,55.682 103.981,55.625 104.037 C 55.586 104.077,55.515 104.110,55.468 104.110 C 55.285 104.110,55.522 103.944,55.759 103.906 C 55.891 103.885,55.999 103.847,55.999 103.822 C 55.999 103.797,56.121 103.780,56.271 103.785 C 56.420 103.790,56.557 103.771,56.575 103.741 C 56.621 103.668,56.643 103.674,56.681 103.774 M56.961 103.877 C 56.962 103.899,56.926 103.930,56.882 103.947 C 56.812 103.974,56.798 103.890,56.838 103.688 C 56.845 103.650,56.960 103.826,56.961 103.877 " stroke="none" fill="#000000" fill-rule="evenodd"></path></g></svg>